<?xml version="1.0" encoding="utf-8"?>
<!-- Generator: Adobe Illustrator 16.0.3, SVG Export Plug-In . SVG Version: 6.00 Build 0)  -->
<!DOCTYPE svg PUBLIC "-//W3C//DTD SVG 1.1//EN" "http://www.w3.org/Graphics/SVG/1.1/DTD/svg11.dtd">
<svg version="1.1" id="Ebene_1" xmlns="http://www.w3.org/2000/svg" xmlns:xlink="http://www.w3.org/1999/xlink" x="0px" y="0px"
	 width="595.28px" height="841.89px" viewBox="0 0 595.28 841.89" enable-background="new 0 0 595.28 841.89" xml:space="preserve">
<g>
	<polygon fill="none" stroke="#FFFFFF" stroke-width="2" stroke-miterlimit="10" points="359.729,459.775 359.729,387.761 
		297.362,351.754 234.996,387.761 234.996,459.775 297.362,495.782 	"/>
	<g>
		<g>
			<g>
				<g>
					<ellipse fill="#FFFFFF" cx="281.449" cy="408.238" rx="2.918" ry="2.9"/>
				</g>
				<g>
					<ellipse fill="#FFFFFF" cx="291.407" cy="371.649" rx="2.918" ry="2.9"/>
				</g>
				<g>
					<ellipse fill="#FFFFFF" cx="278.428" cy="380.368" rx="2.387" ry="2.373"/>
				</g>
				<g>
					<ellipse fill="#FFFFFF" cx="278.114" cy="388.603" rx="4.102" ry="4.077"/>
				</g>
				<g>
					<ellipse fill="#FFFFFF" cx="270.076" cy="395.879" rx="2.679" ry="2.663"/>
				</g>
				<g>
					<ellipse fill="#FFFFFF" cx="266.15" cy="403.266" rx="4.468" ry="4.44"/>
				</g>
				<g>
					<ellipse fill="#FFFFFF" cx="268.369" cy="414.69" rx="2.752" ry="2.735"/>
				</g>
				<g>
					<ellipse fill="#FFFFFF" cx="269.257" cy="422.712" rx="4.129" ry="4.104"/>
				</g>
				<g>
					<ellipse fill="#FFFFFF" cx="276.087" cy="428.229" rx="2.043" ry="2.031"/>
				</g>
				<g>
					<ellipse fill="#FFFFFF" cx="283.713" cy="401.623" rx="2.043" ry="2.03"/>
				</g>
				<g>
					<ellipse fill="#FFFFFF" cx="280.147" cy="416.561" rx="2.347" ry="2.333"/>
				</g>
				<g>
					<ellipse fill="#FFFFFF" cx="257.601" cy="407.992" rx="1.423" ry="1.414"/>
				</g>
				<g>
					<ellipse fill="#FFFFFF" cx="260.236" cy="420.416" rx="2.043" ry="2.029"/>
				</g>
				<g>
					<ellipse fill="#FFFFFF" cx="274.566" cy="407.555" rx="1.917" ry="1.905"/>
				</g>
				<g>
					<ellipse fill="#FFFFFF" cx="275.372" cy="395.11" rx="1.664" ry="1.654"/>
				</g>
				<g>
					<ellipse fill="#FFFFFF" cx="281.139" cy="429.096" rx="1.998" ry="1.985"/>
				</g>
				<g>
					<ellipse fill="#FFFFFF" cx="290.521" cy="434.499" rx="3.699" ry="3.676"/>
				</g>
				<g>
					<ellipse fill="#FFFFFF" cx="286.088" cy="419.781" rx="2.12" ry="2.107"/>
				</g>
				<g>
					<ellipse fill="#FFFFFF" cx="291.978" cy="417.326" rx="2.125" ry="2.111"/>
				</g>
				<g>
					<ellipse fill="#FFFFFF" cx="291.854" cy="378.777" rx="2.58" ry="2.564"/>
				</g>
				<g>
					<ellipse fill="#FFFFFF" cx="286.591" cy="386.949" rx="3.356" ry="3.335"/>
				</g>
				<g>
					<ellipse fill="#FFFFFF" cx="285.022" cy="379.191" rx="3.327" ry="3.306"/>
				</g>
				<g>
					<ellipse fill="#FFFFFF" cx="271.128" cy="382.465" rx="3.987" ry="3.963"/>
				</g>
				<g>
					<ellipse fill="#FFFFFF" cx="271.216" cy="390.863" rx="1.89" ry="1.878"/>
				</g>
				<g>
					<ellipse fill="#FFFFFF" cx="261.077" cy="396.627" rx="2.723" ry="2.707"/>
				</g>
				<g>
					<ellipse fill="#FFFFFF" cx="258.664" cy="403.222" rx="2.338" ry="2.323"/>
				</g>
				<g>
					<ellipse fill="#FFFFFF" cx="260.863" cy="413.184" rx="3.883" ry="3.859"/>
				</g>
				<g>
					<ellipse fill="#FFFFFF" cx="262.474" cy="426.181" rx="2.217" ry="2.203"/>
				</g>
				<g>
					<ellipse fill="#FFFFFF" cx="268.299" cy="433.56" rx="2.56" ry="2.544"/>
				</g>
				<g>
					<ellipse fill="#FFFFFF" cx="277.531" cy="435.832" rx="4.438" ry="4.411"/>
				</g>
				<g>
					<ellipse fill="#FFFFFF" cx="281.6" cy="443.516" rx="2.872" ry="2.854"/>
				</g>
				<g>
					<ellipse fill="#FFFFFF" cx="289.948" cy="443.871" rx="4.323" ry="4.297"/>
				</g>
				<g>
					<ellipse fill="#FFFFFF" cx="265.067" cy="388.228" rx="2.695" ry="2.679"/>
				</g>
				<g>
					<ellipse fill="#FFFFFF" cx="292.16" cy="393.887" rx="2.571" ry="2.555"/>
				</g>
				<g>
					<ellipse fill="#FFFFFF" cx="274.146" cy="401.023" rx="2.998" ry="2.98"/>
				</g>
				<g>
					<ellipse fill="#FFFFFF" cx="288.808" cy="398.528" rx="2.404" ry="2.389"/>
				</g>
				<g>
					<ellipse fill="#FFFFFF" cx="286.137" cy="393.218" rx="1.802" ry="1.791"/>
				</g>
				<g>
					<ellipse fill="#FFFFFF" cx="288.394" cy="408.81" rx="1.712" ry="1.702"/>
				</g>
				<g>
					<ellipse fill="#FFFFFF" cx="293.464" cy="400.66" rx="1.325" ry="1.317"/>
				</g>
				<g>
					<ellipse fill="#FFFFFF" cx="293.327" cy="409.531" rx="1.325" ry="1.316"/>
				</g>
				<g>
					<ellipse fill="#FFFFFF" cx="292.655" cy="389.119" rx="1.325" ry="1.317"/>
				</g>
				<g>
					<ellipse fill="#FFFFFF" cx="292.774" cy="384.498" rx="1.657" ry="1.647"/>
				</g>
				<g>
					<ellipse fill="#FFFFFF" cx="292.724" cy="427.529" rx="1.325" ry="1.316"/>
				</g>
				<g>
					<ellipse fill="#FFFFFF" cx="273.731" cy="418.444" rx="1.325" ry="1.317"/>
				</g>
				<g>
					<ellipse fill="#FFFFFF" cx="266.081" cy="409.952" rx="1.325" ry="1.317"/>
				</g>
				<g>
					<ellipse fill="#FFFFFF" cx="270.977" cy="438.047" rx="1.705" ry="1.694"/>
				</g>
				<g>
					<ellipse fill="#FFFFFF" cx="265.72" cy="429.96" rx="1.325" ry="1.316"/>
				</g>
				<g>
					<ellipse fill="#FFFFFF" cx="284.791" cy="438.171" rx="1.826" ry="1.814"/>
				</g>
				<g>
					<ellipse fill="#FFFFFF" cx="279.501" cy="373.86" rx="1.802" ry="1.791"/>
				</g>
				<g>
					<ellipse fill="#FFFFFF" cx="280.58" cy="395.979" rx="2.416" ry="2.401"/>
				</g>
				<g>
					<ellipse fill="#FFFFFF" cx="279.436" cy="402.814" rx="1.392" ry="1.383"/>
				</g>
				<g>
					<ellipse fill="#FFFFFF" cx="275.497" cy="375.85" rx="1.392" ry="1.383"/>
				</g>
				<g>
					<ellipse fill="#FFFFFF" cx="265.507" cy="393.247" rx="1.649" ry="1.639"/>
				</g>
				<g>
					<ellipse fill="#FFFFFF" cx="270.223" cy="408.898" rx="1.389" ry="1.38"/>
				</g>
				<g>
					<ellipse fill="#FFFFFF" cx="274.956" cy="413.227" rx="2.713" ry="2.696"/>
				</g>
				<g>
					<ellipse fill="#FFFFFF" cx="285.549" cy="413.594" rx="2.577" ry="2.561"/>
				</g>
				<g>
					<ellipse fill="#FFFFFF" cx="277.512" cy="422.515" rx="2.981" ry="2.963"/>
				</g>
				<g>
					<ellipse fill="#FFFFFF" cx="282.855" cy="423.878" rx="1.342" ry="1.334"/>
				</g>
				<g>
					<ellipse fill="#FFFFFF" cx="283.907" cy="433.124" rx="1.342" ry="1.334"/>
				</g>
				<g>
					<ellipse fill="#FFFFFF" cx="271.303" cy="429.926" rx="1.342" ry="1.334"/>
				</g>
				<g>
					<ellipse fill="#FFFFFF" cx="264.44" cy="418.533" rx="1.342" ry="1.334"/>
				</g>
				<g>
					<ellipse fill="#FFFFFF" cx="287.258" cy="427.336" rx="3.015" ry="2.996"/>
				</g>
				<g>
					<ellipse fill="#FFFFFF" cx="291.99" cy="422.592" rx="2.354" ry="2.34"/>
				</g>
				<g>
					<ellipse fill="#FFFFFF" cx="293.052" cy="405.113" rx="1.394" ry="1.385"/>
				</g>
				<g>
					<ellipse fill="#FFFFFF" cx="291.22" cy="412.938" rx="1.393" ry="1.385"/>
				</g>
				<g>
					<ellipse fill="#FFFFFF" cx="288.418" cy="404.217" rx="1.988" ry="1.976"/>
				</g>
				<g>
					<ellipse fill="#FFFFFF" cx="284.393" cy="372.102" rx="1.988" ry="1.976"/>
				</g>
			</g>
			<path fill="#FFFFFF" d="M297.72,448.993L297.72,448.993c-0.632,0-1.145-0.512-1.145-1.145v-78.315
				c0-0.632,0.512-1.145,1.145-1.145l0,0c0.632,0,1.145,0.513,1.145,1.145v78.315C298.864,448.481,298.352,448.993,297.72,448.993z"
				/>
			<g>
				<g>
					<path fill="#FFFFFF" d="M300.642,443.602c-0.191-2.529,1.628-4.742,4.081-4.95l0,0c2.451-0.197,4.597,1.68,4.788,4.209l0,0
						c0.201,2.529-1.628,4.742-4.07,4.95l0,0c-0.125,0.01-0.239,0.01-0.364,0.01l0,0
						C302.777,447.82,300.833,446.002,300.642,443.602z"/>
					<path fill="#FFFFFF" d="M311.608,441.976c-0.986-2.321,0.038-5.028,2.289-6.046l0,0c2.251-1.018,4.876,0.039,5.862,2.361l0,0
						c0.985,2.321-0.038,5.028-2.29,6.047l0,0l0,0l0,0c-0.583,0.267-1.188,0.385-1.78,0.385l0,0
						C313.975,444.723,312.337,443.695,311.608,441.976z"/>
					<path fill="#FFFFFF" d="M321.053,436.882c-1.658-1.878-1.533-4.772,0.276-6.491l0,0c1.811-1.709,4.626-1.581,6.284,0.286l0,0
						c1.656,1.867,1.532,4.772-0.278,6.491l0,0c-0.852,0.801-1.925,1.206-2.998,1.206l0,0
						C323.131,438.374,321.934,437.869,321.053,436.882z"/>
					<path fill="#FFFFFF" d="M328.531,429.256c-2.164-1.206-2.959-3.992-1.78-6.225h-0.01c1.178-2.223,3.879-3.043,6.044-1.838l0,0
						c2.154,1.215,2.949,4.001,1.781,6.225l0,0l0,0l0,0c-0.814,1.531-2.337,2.4-3.918,2.4l0,0
						C329.93,429.818,329.202,429.641,328.531,429.256z"/>
					<path fill="#FFFFFF" d="M333.335,418.961c-2.423-0.426-4.051-2.776-3.649-5.267l0,0c0.01-0.049,0.01-0.089,0.021-0.128l0,0
						c0.401-2.509,2.69-4.199,5.114-3.784l0,0c2.422,0.405,4.061,2.766,3.668,5.266l0,0l0,0l0,0c-0.01,0.05-0.02,0.089-0.028,0.138
						l0,0v0.01l0,0l0,0l0,0c-0.364,2.243-2.252,3.833-4.378,3.833l0,0C333.833,419.029,333.585,419.01,333.335,418.961z"/>
					<path fill="#FFFFFF" d="M329.695,403.656L329.695,403.656c-0.402-2.5,1.227-4.871,3.649-5.286l0,0
						c2.423-0.424,4.722,1.255,5.134,3.765l0,0c0.402,2.5-1.236,4.861-3.649,5.286l0,0c-0.259,0.04-0.498,0.06-0.747,0.06l0,0
						C331.946,407.48,330.06,405.899,329.695,403.656z"/>
					<path fill="#FFFFFF" d="M326.252,395.109L326.252,395.109c-1.168-2.232-0.374-5.019,1.781-6.224l0,0
						c2.165-1.215,4.865-0.385,6.035,1.837l0,0c0,0,0,0,0.009,0l0,0c1.169,2.223,0.373,5.02-1.791,6.225l0,0
						c-0.671,0.375-1.398,0.563-2.116,0.563l0,0C328.589,397.511,327.057,396.641,326.252,395.109z"/>
					<path fill="#FFFFFF" d="M321.277,387.357c-1.812-1.719-1.926-4.624-0.259-6.492l0,0c1.666-1.867,4.482-1.985,6.283-0.267l0,0
						c1.81,1.719,1.925,4.624,0.268,6.481l0,0c-0.881,0.988-2.078,1.482-3.275,1.482l0,0
						C323.212,388.562,322.139,388.167,321.277,387.357z"/>
					<path fill="#FFFFFF" d="M313.688,381.32c-2.252-1.008-3.286-3.715-2.3-6.037l0,0c0.977-2.321,3.602-3.389,5.853-2.371l0,0
						c2.251,1.018,3.285,3.715,2.299,6.037l0,0c-0.729,1.729-2.366,2.756-4.08,2.756l0,0
						C314.864,381.705,314.262,381.586,313.688,381.32z"/>
					<path fill="#FFFFFF" d="M304.995,378.375c-2.452-0.167-4.311-2.351-4.157-4.88l0,0c0.163-2.529,2.28-4.446,4.731-4.288l0,0
						c2.453,0.168,4.311,2.352,4.157,4.881l0,0c-0.153,2.431-2.117,4.297-4.435,4.297l0,0
						C305.196,378.384,305.1,378.375,304.995,378.375z"/>
					<path fill="#FFFFFF" d="M301.105,425.373c-0.143-1.363,0.806-2.579,2.117-2.737l0,0c1.322-0.147,2.5,0.83,2.645,2.184l0,0
						c0.153,1.363-0.796,2.578-2.107,2.728l0,0c-0.096,0.01-0.183,0.02-0.269,0.02l0,0
						C302.284,427.566,301.25,426.628,301.105,425.373z"/>
					<path fill="#FFFFFF" d="M307.696,424.197c-0.671-1.176-0.288-2.697,0.861-3.379l0,0c1.141-0.691,2.605-0.297,3.275,0.879l0,0
						c0.662,1.176,0.278,2.697-0.861,3.379l0,0c-0.384,0.237-0.795,0.346-1.207,0.346l0,0
						C308.941,425.422,308.137,424.978,307.696,424.197z"/>
					<path fill="#FFFFFF" d="M313.127,420.363c-1.073-0.79-1.313-2.332-0.547-3.448l0,0c0.776-1.106,2.271-1.354,3.344-0.563l0,0
						c1.072,0.8,1.321,2.341,0.546,3.448l0,0c-0.47,0.672-1.197,1.027-1.944,1.027l0,0
						C314.046,420.828,313.548,420.68,313.127,420.363z"/>
					<path fill="#FFFFFF" d="M316.689,414.535c-1.293-0.277-2.126-1.581-1.858-2.915h0.01l0,0l0,0c0-0.02,0-0.03,0-0.049l0,0
						c0.259-1.334,1.523-2.204,2.826-1.937l0,0c1.293,0.267,2.136,1.571,1.867,2.915l0,0c0,0.02,0,0.049-0.01,0.069l0,0l0,0l0,0l0,0
						l0,0c-0.229,1.166-1.235,1.976-2.347,1.976l0,0C317.024,414.593,316.853,414.574,316.689,414.535z"/>
					<path fill="#FFFFFF" d="M314.803,405.78c-0.287-1.334,0.526-2.658,1.811-2.954l0,0c1.293-0.297,2.576,0.543,2.863,1.877l0,0
						c0.287,1.334-0.526,2.648-1.82,2.944l0,0c-0.172,0.049-0.354,0.059-0.517,0.059l0,0
						C316.038,407.707,315.042,406.927,314.803,405.78z"/>
					<path fill="#FFFFFF" d="M312.466,400.504c-0.785-1.096-0.556-2.638,0.508-3.448l0,0c1.063-0.81,2.557-0.583,3.343,0.514l0,0
						c0.785,1.097,0.564,2.648-0.499,3.458l0,0c-0.431,0.326-0.929,0.484-1.427,0.484l0,0
						C313.663,401.512,312.935,401.157,312.466,400.504z"/>
					<path fill="#FFFFFF" d="M308.395,396.671c-1.149-0.682-1.561-2.184-0.909-3.37l0,0c0.651-1.186,2.116-1.61,3.266-0.938l0,0
						c1.149,0.672,1.552,2.183,0.901,3.369l0,0c-0.441,0.8-1.246,1.255-2.079,1.255l0,0
						C309.171,396.987,308.769,396.878,308.395,396.671z"/>
					<path fill="#FFFFFF" d="M303.06,394.972c-1.321-0.119-2.298-1.304-2.183-2.667l0,0c0.104-1.364,1.264-2.372,2.585-2.253l0,0
						c1.313,0.108,2.299,1.304,2.185,2.668l0,0c-0.105,1.284-1.15,2.262-2.386,2.262l0,0
						C303.194,394.981,303.127,394.981,303.06,394.972z"/>
				</g>
				<g>
					<path fill="#FFFFFF" d="M300.714,433.691c-0.201-2.035,1.235-3.853,3.208-4.061l0,0c1.973-0.207,3.736,1.274,3.938,3.311l0,0
						c0.201,2.035-1.236,3.853-3.21,4.061l0,0l0,0l0,0c-0.124,0.01-0.248,0.02-0.363,0.02l0,0
						C302.456,437.021,300.904,435.599,300.714,433.691z"/>
					<path fill="#FFFFFF" d="M310.617,432.022c-0.986-1.778-0.383-4.041,1.341-5.06l0,0c1.714-1.018,3.907-0.404,4.895,1.374l0,0
						c0.986,1.778,0.393,4.041-1.331,5.059l0,0c-0.565,0.336-1.179,0.494-1.782,0.494l0,0
						C312.495,433.89,311.288,433.218,310.617,432.022z"/>
					<path fill="#FFFFFF" d="M318.528,426.351c-1.6-1.215-1.944-3.536-0.776-5.187l0,0c1.179-1.65,3.42-2.006,5.02-0.791l0,0
						c1.6,1.206,1.944,3.527,0.775,5.178l0,0c-0.709,0.988-1.791,1.512-2.901,1.512l0,0
						C319.907,427.063,319.16,426.835,318.528,426.351z"/>
					<path fill="#FFFFFF" d="M323.648,417.637c-1.936-0.436-3.171-2.401-2.75-4.407l0,0c0-0.01,0.01-0.029,0.01-0.04l0,0
						c0-0.01,0.01-0.02,0.01-0.029l0,0c0.401-2.006,2.317-3.281,4.253-2.855l0,0c1.943,0.425,3.179,2.391,2.768,4.387l0,0
						c0,0.02,0,0.03-0.01,0.04l0,0c0,0.02-0.009,0.049-0.009,0.069l0,0l0,0l0,0c-0.365,1.739-1.85,2.925-3.506,2.925l0,0
						C324.165,417.726,323.906,417.695,323.648,417.637z"/>
					<path fill="#FFFFFF" d="M320.927,404.457c-0.411-2.006,0.824-3.972,2.769-4.397l0,0c1.935-0.424,3.841,0.85,4.253,2.855l0,0
						c0.412,1.996-0.823,3.972-2.769,4.397l0,0c-0.248,0.049-0.498,0.079-0.747,0.079l0,0
						C322.776,407.391,321.281,406.195,320.927,404.457z"/>
					<path fill="#FFFFFF" d="M317.81,396.493h-0.01c-1.158-1.65-0.804-3.972,0.805-5.167l0,0c1.609-1.206,3.851-0.83,5.02,0.82l0,0
						c1.158,1.66,0.804,3.972-0.805,5.177l0,0c-0.632,0.475-1.369,0.702-2.098,0.702l0,0
						C319.601,398.024,318.509,397.501,317.81,396.493z"/>
					<path fill="#FFFFFF" d="M312.045,390.664c-1.715-1.028-2.309-3.29-1.313-5.059l0,0c0.996-1.778,3.189-2.381,4.913-1.354l0,0
						c1.715,1.028,2.299,3.29,1.303,5.059l0,0c-0.661,1.186-1.867,1.857-3.113,1.857l0,0
						C313.231,391.167,312.609,391,312.045,390.664z"/>
					<path fill="#FFFFFF" d="M304.056,388.036L304.056,388.036c-1.973-0.188-3.429-1.996-3.246-4.031l0,0
						c0.191-2.035,1.944-3.537,3.917-3.339l0,0l0,0l0,0c1.974,0.188,3.42,1.996,3.237,4.031l0,0
						c-0.172,1.917-1.743,3.359-3.572,3.359l0,0C304.286,388.056,304.171,388.056,304.056,388.036z"/>
					<path fill="#FFFFFF" d="M301.25,419.465c-0.096-0.949,0.564-1.799,1.484-1.907l0,0c0.919-0.099,1.753,0.583,1.849,1.531l0,0
						c0.105,0.948-0.565,1.808-1.485,1.907l0,0c0,0,0,0,0.011,0l0,0c-0.067,0.01-0.125,0.01-0.191,0.01l0,0
						C302.074,421.006,301.345,420.354,301.25,419.465z"/>
					<path fill="#FFFFFF" d="M305.503,418.772c-0.46-0.819-0.191-1.887,0.604-2.361l0,0c0.804-0.484,1.829-0.208,2.298,0.622l0,0
						c0.46,0.82,0.191,1.878-0.604,2.362l0,0c-0.269,0.157-0.556,0.237-0.843,0.237l0,0
						C306.374,419.633,305.819,419.326,305.503,418.772z"/>
					<path fill="#FFFFFF" d="M309.123,416.362c-0.747-0.563-0.92-1.64-0.383-2.42l0,0c0.545-0.771,1.59-0.948,2.347-0.385l0,0
						c0.746,0.553,0.92,1.64,0.373,2.411l0,0l0,0l0,0c-0.325,0.474-0.843,0.721-1.359,0.721l0,0
						C309.765,416.688,309.42,416.58,309.123,416.362z"/>
					<path fill="#FFFFFF" d="M311.47,412.637c-0.91-0.197-1.484-1.106-1.293-2.045l0,0c0-0.01,0-0.02,0-0.03l0,0
						c0.182-0.938,1.073-1.541,1.973-1.354l0,0c0.91,0.188,1.504,1.097,1.313,2.035l0,0c0,0.02,0,0.03-0.01,0.049l0,0l0,0l0,0l0,0
						l0,0c-0.162,0.82-0.862,1.383-1.638,1.383l0,0C311.699,412.677,311.585,412.657,311.47,412.637z"/>
					<path fill="#FFFFFF" d="M310.157,406.887c-0.201-0.929,0.364-1.848,1.274-2.055l0,0c0.9-0.208,1.791,0.375,1.992,1.314l0,0
						c0.201,0.929-0.364,1.857-1.274,2.065l0,0c-0.115,0.02-0.239,0.04-0.363,0.04l0,0
						C311.02,408.25,310.32,407.697,310.157,406.887z"/>
					<path fill="#FFFFFF" d="M308.683,403.557c-0.556-0.77-0.394-1.857,0.354-2.42l0,0c0.737-0.573,1.791-0.405,2.337,0.365l0,0
						c0.556,0.771,0.393,1.848-0.345,2.421l0,0c-0.307,0.228-0.651,0.336-0.996,0.336l0,0
						C309.516,404.259,309.008,404.012,308.683,403.557z"/>
					<path fill="#FFFFFF" d="M306.029,401.117c-0.814-0.464-1.092-1.521-0.632-2.352l0,0c0.449-0.83,1.475-1.126,2.279-0.652l0,0
						l0,0l0,0c0.805,0.474,1.092,1.521,0.632,2.361l0,0c-0.307,0.553-0.871,0.87-1.456,0.87l0,0
						C306.565,401.345,306.287,401.275,306.029,401.117z"/>
					<path fill="#FFFFFF" d="M302.648,400.04c-0.92-0.079-1.6-0.918-1.523-1.867l0,0c0.077-0.948,0.891-1.66,1.811-1.571l0,0
						c0.919,0.079,1.609,0.919,1.533,1.868l0,0c-0.077,0.899-0.815,1.581-1.677,1.581l0,0
						C302.743,400.05,302.696,400.05,302.648,400.04z"/>
				</g>
			</g>
		</g>
		<g>
			<path fill="#FFFFFF" d="M289.037,460.592c-0.312-0.108-0.576-0.156-1.236-0.156h-2.447v5.471h2.352
				c0.12,0,0.792,0.023,1.308-0.168c0.744-0.264,1.379-0.996,1.379-2.663c0-0.204,0.012-1.487-0.781-2.159
				C289.528,460.843,289.325,460.699,289.037,460.592z"/>
			<path fill="#FFFFFF" d="M325.346,455.494h-55.967c-4.182,0-7.573,3.391-7.573,7.572c0,4.183,3.391,7.573,7.573,7.573h55.967
				c4.183,0,7.573-3.391,7.573-7.573C332.919,458.885,329.528,455.494,325.346,455.494z M278.525,460.483h-3.131v6.923h-2.135
				v-6.923h-3.144v-1.547h8.41V460.483z M291.256,466.302c-0.239,0.229-0.744,0.66-1.583,0.899
				c-0.528,0.156-0.973,0.205-2.064,0.205h-4.367v-8.47h4.643c1.055,0,1.942,0.095,2.866,0.671c0.132,0.084,0.408,0.252,0.685,0.54
				c0.756,0.78,1.067,1.92,1.067,2.987C292.504,464.875,291.772,465.822,291.256,466.302z M307.143,467.406h-2.075l-2.053-6.167
				L301,467.406h-2.111l-2.232-8.47h2.063l1.272,5.782l1.944-5.782h2.207l1.907,5.782l1.284-5.782h2.027L307.143,467.406z
				 M315.926,464.335c0.66,1.691,2.507,1.775,2.998,1.775c0.924,0,2.027-0.312,2.664-1.031c0.264-0.301,0.337-0.54,0.396-0.685
				h-2.771v-1.523h4.547v4.535h-1.619v-0.973c-0.097,0.097-0.192,0.181-0.3,0.265c-0.361,0.287-1.116,0.744-2.269,0.899
				c-0.313,0.048-0.636,0.061-0.936,0.061c-1.8,0-2.795-0.48-3.431-0.948c-0.492-0.359-1.26-1.02-1.561-2.472
				c-0.036-0.18-0.119-0.611-0.119-1.104c0-1.535,0.768-2.579,1.14-2.975c0.229-0.241,0.527-0.48,0.804-0.66
				c1.067-0.672,2.23-0.853,3.467-0.853c0.575,0,2.819,0.013,4.259,1.596c0.241,0.276,0.385,0.505,0.564,0.816l-2.34,0.323
				c-0.047-0.06-0.252-0.312-0.469-0.503c-0.563-0.48-1.343-0.66-2.098-0.66c-1.033,0-2.124,0.372-2.699,1.283
				c-0.169,0.265-0.445,0.853-0.445,1.656C315.709,463.351,315.722,463.819,315.926,464.335z"/>
		</g>
	</g>
</g>
</svg>
