<?xml version="1.0" encoding="UTF-8"?><svg id="Layer_2" xmlns="http://www.w3.org/2000/svg" viewBox="0 0 100.28 20.32"><defs><style>.cls-1{fill:#043b58;}</style></defs><g id="Layer_1-2"><g><path class="cls-1" d="M38.66,6.84c-.42-.14-.77-.21-1.66-.21h-3.28v7.34h3.15c.16,0,1.06,.03,1.75-.23,1-.35,1.85-1.34,1.85-3.57,0-.27,.02-2-1.05-2.9-.11-.1-.38-.29-.77-.43Z"/><path class="cls-1" d="M90.12,0H10.16C4.55,0,0,4.55,0,10.16s4.55,10.16,10.16,10.16H90.12c5.61,0,10.16-4.55,10.16-10.16S95.73,0,90.12,0ZM24.56,6.69h-4.2V15.98h-2.86V6.69h-4.22v-2.08h11.28v2.08Zm17.08,7.8c-.32,.31-1,.89-2.12,1.21-.71,.21-1.31,.27-2.77,.27h-5.86V4.62h6.23c1.41,0,2.61,.13,3.85,.9,.18,.11,.55,.34,.92,.72,1.01,1.05,1.43,2.57,1.43,4.01,0,2.33-.98,3.6-1.67,4.25Zm21.31,1.48h-2.78l-2.75-8.27-2.7,8.27h-2.83l-2.99-11.36h2.77l1.71,7.76,2.61-7.76h2.96l2.56,7.76,1.72-7.76h2.72l-2.98,11.36Zm11.78-4.12c.89,2.27,3.36,2.38,4.02,2.38,1.24,0,2.72-.42,3.57-1.38,.35-.4,.45-.72,.53-.92h-3.72v-2.04h6.1v6.08h-2.17v-1.3c-.13,.13-.26,.24-.4,.35-.48,.39-1.5,1-3.04,1.21-.42,.06-.85,.08-1.25,.08-2.41,0-3.75-.64-4.6-1.27-.66-.48-1.69-1.37-2.09-3.32-.05-.24-.16-.82-.16-1.48,0-2.06,1.03-3.46,1.53-3.99,.31-.32,.71-.64,1.08-.88,1.43-.9,2.99-1.14,4.65-1.14,.77,0,3.78,.02,5.71,2.14,.32,.37,.52,.68,.76,1.09l-3.14,.43c-.06-.08-.34-.42-.63-.68-.76-.64-1.8-.89-2.81-.89-1.38,0-2.85,.5-3.62,1.72-.23,.35-.6,1.14-.6,2.22,0,.26,.02,.89,.29,1.58Z"/></g></g></svg>