<?xml version="1.0" encoding="UTF-8"?><svg id="Layer_2" xmlns="http://www.w3.org/2000/svg" viewBox="0 0 124.98 144.32"><defs><style>.cls-1{fill:#043b58;}.cls-2{fill:#6f9243;}.cls-3{fill:#fff;stroke:#231f20;stroke-miterlimit:10;stroke-width:.25px;}</style></defs><g id="Layer_1-2"><g><polygon class="cls-3" points="124.86 108.17 124.86 36.15 62.49 .14 .12 36.15 .12 108.17 62.49 144.17 124.86 108.17"/><g><g><ellipse class="cls-2" cx="46.58" cy="58.63" rx="2.92" ry="2.9"/><ellipse class="cls-2" cx="56.54" cy="22.04" rx="2.92" ry="2.9"/><ellipse class="cls-2" cx="43.56" cy="30.76" rx="2.39" ry="2.37"/><ellipse class="cls-2" cx="43.24" cy="38.99" rx="4.1" ry="4.08"/><ellipse class="cls-2" cx="35.21" cy="46.27" rx="2.68" ry="2.66"/><ellipse class="cls-2" cx="31.28" cy="53.66" rx="4.47" ry="4.44"/><ellipse class="cls-2" cx="33.5" cy="65.08" rx="2.75" ry="2.74"/><ellipse class="cls-2" cx="34.39" cy="73.1" rx="4.13" ry="4.1"/><ellipse class="cls-2" cx="41.22" cy="78.62" rx="2.04" ry="2.03"/><ellipse class="cls-2" cx="48.84" cy="52.01" rx="2.04" ry="2.03"/><ellipse class="cls-2" cx="45.28" cy="66.95" rx="2.35" ry="2.33"/><ellipse class="cls-2" cx="22.73" cy="58.38" rx="1.42" ry="1.41"/><ellipse class="cls-2" cx="25.36" cy="70.81" rx="2.04" ry="2.03"/><ellipse class="cls-2" cx="39.69" cy="57.95" rx="1.92" ry="1.9"/><ellipse class="cls-2" cx="40.5" cy="45.5" rx="1.66" ry="1.65"/><ellipse class="cls-2" cx="46.27" cy="79.49" rx="2" ry="1.99"/><ellipse class="cls-2" cx="55.65" cy="84.89" rx="3.7" ry="3.68"/><ellipse class="cls-2" cx="51.22" cy="70.17" rx="2.12" ry="2.11"/><ellipse class="cls-2" cx="57.11" cy="67.72" rx="2.12" ry="2.11"/><ellipse class="cls-1" cx="56.98" cy="29.17" rx="2.58" ry="2.56"/><ellipse class="cls-1" cx="51.72" cy="37.34" rx="3.36" ry="3.34"/><ellipse class="cls-1" cx="50.15" cy="29.58" rx="3.33" ry="3.31"/><ellipse class="cls-1" cx="36.26" cy="32.86" rx="3.99" ry="3.96"/><ellipse class="cls-1" cx="36.35" cy="41.25" rx="1.89" ry="1.88"/><ellipse class="cls-1" cx="26.21" cy="47.02" rx="2.72" ry="2.71"/><ellipse class="cls-1" cx="23.79" cy="53.61" rx="2.34" ry="2.32"/><ellipse class="cls-1" cx="25.99" cy="63.57" rx="3.88" ry="3.86"/><ellipse class="cls-1" cx="27.6" cy="76.57" rx="2.22" ry="2.2"/><ellipse class="cls-1" cx="33.43" cy="83.95" rx="2.56" ry="2.54"/><ellipse class="cls-1" cx="42.66" cy="86.22" rx="4.44" ry="4.41"/><ellipse class="cls-1" cx="46.73" cy="93.91" rx="2.87" ry="2.85"/><ellipse class="cls-1" cx="55.08" cy="94.26" rx="4.32" ry="4.3"/><ellipse class="cls-2" cx="30.2" cy="38.62" rx="2.7" ry="2.68"/><ellipse class="cls-1" cx="57.29" cy="44.28" rx="2.57" ry="2.55"/><ellipse class="cls-1" cx="39.27" cy="51.41" rx="3" ry="2.98"/><ellipse class="cls-1" cx="53.94" cy="48.92" rx="2.4" ry="2.39"/><ellipse class="cls-2" cx="51.27" cy="43.61" rx="1.8" ry="1.79"/><ellipse class="cls-2" cx="53.52" cy="59.2" rx="1.71" ry="1.7"/><ellipse class="cls-2" cx="58.59" cy="51.05" rx="1.32" ry="1.32"/><ellipse class="cls-2" cx="58.46" cy="59.92" rx="1.32" ry="1.32"/><ellipse class="cls-2" cx="57.78" cy="39.51" rx="1.32" ry="1.32"/><ellipse class="cls-2" cx="57.9" cy="34.89" rx="1.66" ry="1.65"/><ellipse class="cls-2" cx="57.85" cy="77.92" rx="1.32" ry="1.32"/><ellipse class="cls-2" cx="38.86" cy="68.83" rx="1.32" ry="1.32"/><ellipse class="cls-2" cx="31.21" cy="60.34" rx="1.32" ry="1.32"/><ellipse class="cls-2" cx="36.11" cy="88.44" rx="1.7" ry="1.69"/><ellipse class="cls-2" cx="30.85" cy="80.35" rx="1.32" ry="1.32"/><ellipse class="cls-2" cx="49.92" cy="88.56" rx="1.83" ry="1.81"/><ellipse class="cls-2" cx="44.63" cy="24.25" rx="1.8" ry="1.79"/><ellipse class="cls-1" cx="45.71" cy="46.37" rx="2.42" ry="2.4"/><ellipse class="cls-1" cx="44.56" cy="53.2" rx="1.39" ry="1.38"/><ellipse class="cls-1" cx="40.63" cy="26.24" rx="1.39" ry="1.38"/><ellipse class="cls-1" cx="30.64" cy="43.64" rx="1.65" ry="1.64"/><ellipse class="cls-1" cx="35.35" cy="59.29" rx="1.39" ry="1.38"/><ellipse class="cls-1" cx="40.08" cy="63.62" rx="2.71" ry="2.7"/><ellipse class="cls-1" cx="50.68" cy="63.98" rx="2.58" ry="2.56"/><ellipse class="cls-1" cx="42.64" cy="72.9" rx="2.98" ry="2.96"/><ellipse class="cls-1" cx="47.98" cy="74.27" rx="1.34" ry="1.33"/><ellipse class="cls-1" cx="49.04" cy="83.51" rx="1.34" ry="1.33"/><ellipse class="cls-1" cx="36.43" cy="80.32" rx="1.34" ry="1.33"/><ellipse class="cls-1" cx="29.57" cy="68.92" rx="1.34" ry="1.33"/><ellipse class="cls-1" cx="52.39" cy="77.73" rx="3.01" ry="3"/><ellipse class="cls-1" cx="57.12" cy="72.98" rx="2.35" ry="2.34"/><ellipse class="cls-1" cx="58.18" cy="55.5" rx="1.39" ry="1.38"/><ellipse class="cls-1" cx="56.35" cy="63.33" rx="1.39" ry="1.38"/><ellipse class="cls-1" cx="53.55" cy="54.61" rx="1.99" ry="1.98"/><ellipse class="cls-1" cx="49.52" cy="22.49" rx="1.99" ry="1.98"/></g><rect class="cls-1" x="61.7" y="18.78" width="2.29" height="80.61" rx="1.14" ry="1.14"/><g><g><path class="cls-1" d="M65.77,93.99c-.19-2.53,1.63-4.74,4.08-4.95h0c2.45-.2,4.6,1.68,4.79,4.21h0c.2,2.53-1.63,4.74-4.07,4.95h0c-.13,.01-.24,.01-.36,.01h0c-2.3,0-4.24-1.82-4.43-4.22Z"/><path class="cls-1" d="M76.74,92.37c-.99-2.32,.04-5.03,2.29-6.05h0c2.25-1.02,4.88,.04,5.86,2.36h0c.99,2.32-.04,5.03-2.29,6.05h0c-.58,.27-1.19,.38-1.78,.38h0c-1.71,0-3.35-1.03-4.08-2.75Z"/><path class="cls-1" d="M86.18,87.27c-1.66-1.88-1.53-4.77,.28-6.49h0c1.81-1.71,4.63-1.58,6.28,.29h0c1.66,1.87,1.53,4.77-.28,6.49h0c-.85,.8-1.92,1.21-3,1.21h0c-1.21,0-2.4-.5-3.28-1.49Z"/><path class="cls-1" d="M93.66,79.65c-2.16-1.21-2.96-3.99-1.78-6.22h0c1.18-2.22,3.88-3.04,6.04-1.84h0c2.16,1.22,2.95,4,1.78,6.22h0c-.81,1.53-2.34,2.4-3.92,2.4h0c-.72,0-1.45-.18-2.12-.56Z"/><path class="cls-1" d="M98.46,69.35c-2.42-.43-4.05-2.78-3.65-5.27h0s0-.09,.02-.13h0c.4-2.51,2.69-4.2,5.11-3.78h0c2.42,.4,4.06,2.77,3.67,5.27h0s-.02,.09-.03,.14h0c-.36,2.25-2.25,3.84-4.38,3.84h0c-.25,0-.5-.02-.75-.07Z"/><path class="cls-1" d="M94.82,54.05h0c-.4-2.5,1.23-4.87,3.65-5.29h0c2.42-.42,4.72,1.25,5.13,3.76h0c.4,2.5-1.24,4.86-3.65,5.29h0c-.26,.04-.5,.06-.75,.06h0c-2.14,0-4.02-1.58-4.39-3.82Z"/><path class="cls-1" d="M91.38,45.5h0c-1.17-2.23-.37-5.02,1.78-6.22h0c2.17-1.22,4.87-.39,6.03,1.84h0c1.17,2.22,.37,5.02-1.79,6.22h0c-.67,.38-1.4,.56-2.12,.56h0c-1.58,0-3.11-.87-3.92-2.4Z"/><path class="cls-1" d="M86.41,37.75c-1.81-1.72-1.93-4.62-.26-6.49h0c1.67-1.87,4.48-1.99,6.28-.27h0c1.81,1.72,1.92,4.62,.27,6.48h0c-.88,.99-2.08,1.48-3.28,1.48h0c-1.08,0-2.16-.4-3.02-1.21Z"/><path class="cls-1" d="M78.82,31.71c-2.25-1.01-3.29-3.72-2.3-6.04h0c.98-2.32,3.6-3.39,5.85-2.37h0c2.25,1.02,3.28,3.72,2.3,6.04h0c-.73,1.73-2.37,2.76-4.08,2.76h0c-.59,0-1.2-.12-1.77-.38Z"/><path class="cls-1" d="M70.12,28.77c-2.45-.17-4.31-2.35-4.16-4.88h0c.16-2.53,2.28-4.45,4.73-4.29h0c2.45,.17,4.31,2.35,4.16,4.88h0c-.15,2.43-2.12,4.3-4.43,4.3h0c-.1,0-.19,0-.3,0Z"/><path class="cls-1" d="M66.23,75.76c-.14-1.36,.81-2.58,2.12-2.74h0c1.32-.15,2.5,.83,2.64,2.18h0c.15,1.36-.8,2.58-2.11,2.73h0c-.1,0-.18,.02-.27,.02h0c-1.21,0-2.24-.94-2.39-2.19Z"/><path class="cls-1" d="M72.83,74.59c-.67-1.18-.29-2.7,.86-3.38h0c1.14-.69,2.6-.3,3.28,.88h0c.66,1.18,.28,2.7-.86,3.38h0c-.38,.24-.8,.35-1.21,.35h0c-.82,0-1.63-.44-2.07-1.22Z"/><path class="cls-1" d="M78.26,70.75c-1.07-.79-1.31-2.33-.55-3.45h0c.78-1.11,2.27-1.35,3.34-.56h0c1.07,.8,1.32,2.34,.55,3.45h0c-.47,.67-1.2,1.03-1.94,1.03h0c-.48,0-.98-.15-1.4-.46Z"/><path class="cls-1" d="M81.82,64.92c-1.29-.28-2.13-1.58-1.86-2.91h.01v-.05h0c.26-1.33,1.52-2.2,2.83-1.94h0c1.29,.27,2.14,1.57,1.87,2.91h0s0,.05,0,.07h0c-.23,1.17-1.24,1.98-2.35,1.98h0c-.15,0-.33-.02-.49-.06Z"/><path class="cls-1" d="M79.93,56.17c-.29-1.33,.53-2.66,1.81-2.95h0c1.29-.3,2.58,.54,2.86,1.88h0c.29,1.33-.53,2.65-1.82,2.94h0c-.17,.05-.35,.06-.52,.06h0c-1.1,0-2.1-.78-2.34-1.93Z"/><path class="cls-1" d="M77.59,50.89c-.78-1.1-.56-2.64,.51-3.45h0c1.06-.81,2.56-.58,3.34,.51h0c.78,1.1,.56,2.65-.5,3.46h0c-.43,.33-.93,.48-1.43,.48h0c-.73,0-1.46-.36-1.92-1.01Z"/><path class="cls-1" d="M73.52,47.06c-1.15-.68-1.56-2.18-.91-3.37h0c.65-1.19,2.12-1.61,3.27-.94h0c1.15,.67,1.55,2.18,.9,3.37h0c-.44,.8-1.25,1.25-2.08,1.25h0c-.4,0-.81-.11-1.18-.32Z"/><path class="cls-1" d="M68.19,45.36c-1.32-.12-2.3-1.3-2.18-2.67h0c.1-1.36,1.26-2.37,2.59-2.25h0c1.31,.11,2.3,1.3,2.18,2.67h0c-.1,1.28-1.15,2.26-2.39,2.26h0c-.07,0-.13,0-.2-.01Z"/></g><g><path class="cls-2" d="M65.84,84.08c-.2-2.04,1.24-3.85,3.21-4.06h0c1.97-.21,3.74,1.27,3.94,3.31h0c.2,2.04-1.24,3.85-3.21,4.06h0c-.12,.01-.25,.02-.36,.02h0c-1.83,0-3.38-1.42-3.57-3.33Z"/><path class="cls-2" d="M75.75,82.41c-.99-1.78-.38-4.04,1.34-5.06h0c1.71-1.02,3.91-.4,4.89,1.37h0c.99,1.78,.39,4.04-1.33,5.06h0c-.57,.34-1.18,.49-1.78,.49h0c-1.24,0-2.45-.67-3.12-1.87Z"/><path class="cls-2" d="M83.66,76.74c-1.6-1.22-1.94-3.54-.78-5.19h0c1.18-1.65,3.42-2.01,5.02-.79h0c1.6,1.21,1.94,3.53,.78,5.18h0c-.71,.99-1.79,1.51-2.9,1.51h0c-.74,0-1.49-.23-2.12-.71Z"/><path class="cls-2" d="M88.78,68.03c-1.94-.43-3.17-2.4-2.75-4.41h0s0-.03,0-.04h0s0-.02,0-.03h0c.4-2.01,2.32-3.28,4.25-2.86h0c1.94,.43,3.18,2.39,2.77,4.39h0s0,.03,0,.04h0s0,.05,0,.07h0c-.36,1.74-1.85,2.92-3.51,2.92h0c-.25,0-.51-.03-.77-.09Z"/><path class="cls-2" d="M86.06,54.85c-.41-2.01,.82-3.97,2.77-4.4h0c1.93-.42,3.84,.85,4.25,2.86h0c.41,2-.82,3.97-2.77,4.4h0c-.25,.05-.5,.08-.75,.08h0c-1.66,0-3.15-1.2-3.51-2.93Z"/><path class="cls-2" d="M82.94,46.88h0c-1.16-1.65-.8-3.97,.8-5.17h0c1.61-1.21,3.85-.83,5.02,.82h0c1.16,1.66,.8,3.97-.8,5.18h0c-.63,.47-1.37,.7-2.1,.7h0c-1.12,0-2.21-.52-2.91-1.53Z"/><path class="cls-2" d="M77.17,41.05c-1.71-1.03-2.31-3.29-1.31-5.06h0c1-1.78,3.19-2.38,4.91-1.35h0c1.71,1.03,2.3,3.29,1.3,5.06h0c-.66,1.19-1.87,1.86-3.11,1.86h0c-.6,0-1.23-.17-1.79-.5Z"/><path class="cls-2" d="M69.18,38.43h0c-1.97-.19-3.43-2-3.25-4.03h0c.19-2.04,1.94-3.54,3.92-3.34h0c1.97,.19,3.42,2,3.24,4.03h0c-.17,1.92-1.74,3.36-3.57,3.36h0c-.11,0-.22,0-.34-.02Z"/><path class="cls-2" d="M66.38,69.85c-.1-.95,.56-1.8,1.48-1.91h0c.92-.1,1.75,.58,1.85,1.53h0c.1,.95-.57,1.81-1.49,1.91h.01c-.07,.01-.13,.01-.19,.01h0c-.84,0-1.57-.65-1.67-1.54Z"/><path class="cls-2" d="M70.63,69.16c-.46-.82-.19-1.89,.6-2.36h0c.8-.48,1.83-.21,2.3,.62h0c.46,.82,.19,1.88-.6,2.36h0c-.27,.16-.56,.24-.84,.24h0c-.58,0-1.14-.31-1.46-.86Z"/><path class="cls-2" d="M74.25,66.75c-.75-.56-.92-1.64-.38-2.42h0c.55-.77,1.59-.95,2.35-.39h0c.75,.55,.92,1.64,.37,2.41h0c-.33,.47-.84,.72-1.36,.72h0c-.34,0-.68-.11-.98-.33Z"/><path class="cls-2" d="M76.6,63.03c-.91-.2-1.48-1.11-1.29-2.05h0v-.03h0c.18-.94,1.07-1.54,1.97-1.35h0c.91,.19,1.5,1.1,1.31,2.04h0s0,.03,0,.05h0c-.16,.82-.86,1.38-1.64,1.38h0c-.12,0-.23-.02-.35-.04Z"/><path class="cls-2" d="M75.29,57.28c-.2-.93,.36-1.85,1.27-2.06h0c.9-.21,1.79,.38,1.99,1.31h0c.2,.93-.36,1.86-1.27,2.06h0c-.12,.02-.24,.04-.36,.04h0c-.77,0-1.47-.55-1.63-1.36Z"/><path class="cls-2" d="M73.81,53.95c-.56-.77-.39-1.86,.35-2.42h0c.74-.57,1.79-.41,2.34,.37h0c.56,.77,.39,1.85-.35,2.42h0c-.31,.23-.65,.34-1,.34h0c-.52,0-1.03-.25-1.35-.7Z"/><path class="cls-2" d="M71.16,51.51c-.81-.46-1.09-1.52-.63-2.35h0c.45-.83,1.48-1.13,2.28-.65h0c.8,.47,1.09,1.52,.63,2.36h0c-.31,.55-.87,.87-1.46,.87h0c-.29,0-.56-.07-.82-.23Z"/><path class="cls-2" d="M67.78,50.43c-.92-.08-1.6-.92-1.52-1.87h0c.08-.95,.89-1.66,1.81-1.57h0c.92,.08,1.61,.92,1.53,1.87h0c-.08,.9-.81,1.58-1.68,1.58h0s-.1,0-.14-.01Z"/></g></g></g><g><path class="cls-1" d="M54.17,110.98c-.31-.11-.58-.16-1.24-.16h-2.45v5.47h2.35c.12,0,.79,.02,1.31-.17,.74-.26,1.38-1,1.38-2.66,0-.2,.01-1.49-.78-2.16-.08-.07-.29-.22-.58-.32Z"/><path class="cls-1" d="M90.47,105.88H34.51c-4.18,0-7.57,3.39-7.57,7.57s3.39,7.57,7.57,7.57h55.97c4.18,0,7.57-3.39,7.57-7.57s-3.39-7.57-7.57-7.57Zm-46.82,4.99h-3.13v6.92h-2.14v-6.92h-3.14v-1.55h8.41v1.55Zm12.73,5.82c-.24,.23-.74,.66-1.58,.9-.53,.16-.97,.2-2.06,.2h-4.37v-8.47h4.64c1.05,0,1.94,.1,2.87,.67,.13,.08,.41,.25,.68,.54,.76,.78,1.07,1.92,1.07,2.99,0,1.74-.73,2.69-1.25,3.17Zm15.89,1.1h-2.07l-2.05-6.17-2.01,6.17h-2.11l-2.23-8.47h2.06l1.27,5.78,1.94-5.78h2.21l1.91,5.78,1.28-5.78h2.03l-2.22,8.47Zm8.78-3.07c.66,1.69,2.51,1.78,3,1.78,.92,0,2.03-.31,2.66-1.03,.26-.3,.34-.54,.4-.68h-2.77v-1.52h4.55v4.54h-1.62v-.97c-.1,.1-.19,.18-.3,.26-.36,.29-1.12,.74-2.27,.9-.31,.05-.64,.06-.94,.06-1.8,0-2.8-.48-3.43-.95-.49-.36-1.26-1.02-1.56-2.47-.04-.18-.12-.61-.12-1.1,0-1.54,.77-2.58,1.14-2.98,.23-.24,.53-.48,.8-.66,1.07-.67,2.23-.85,3.47-.85,.58,0,2.82,.01,4.26,1.6,.24,.28,.39,.5,.56,.82l-2.34,.32c-.05-.06-.25-.31-.47-.5-.56-.48-1.34-.66-2.1-.66-1.03,0-2.12,.37-2.7,1.28-.17,.26-.44,.85-.44,1.66,0,.19,.01,.66,.22,1.18Z"/></g></g></g></svg>