<svg xmlns="http://www.w3.org/2000/svg" viewBox="0 0 410 241"><title>filled</title><g id="Layer_2" data-name="Layer 2"><g id="Layer_1-2" data-name="Layer 1"><rect x="0.5" y="0.5" width="409" height="240" style="fill:#033b57;stroke:#1d1d1b;stroke-miterlimit:10"/><path d="M35.63,53.8V22.37h8.94a9.78,9.78,0,0,1,6.47,2,6.45,6.45,0,0,1,2.39,5.19A7.64,7.64,0,0,1,52,34.2,7.8,7.8,0,0,1,48,37v.09a8,8,0,0,1,5.09,2.4A7.38,7.38,0,0,1,55,44.77a8.22,8.22,0,0,1-2.89,6.53,10.77,10.77,0,0,1-7.3,2.5Zm3.68-28.1V35.85h3.77a7.16,7.16,0,0,0,4.76-1.46,5.08,5.08,0,0,0,1.73-4.11q0-4.58-6-4.58Zm0,13.46V50.47h5a7.49,7.49,0,0,0,5-1.53,5.26,5.26,0,0,0,1.79-4.21q0-5.57-7.58-5.57Z" style="fill:#f4f4f4"/><path d="M73.53,25.66A2.28,2.28,0,0,1,71.88,25a2.22,2.22,0,0,1-.68-1.67A2.3,2.3,0,0,1,73.53,21a2.32,2.32,0,0,1,1.68.67,2.34,2.34,0,0,1,0,3.32A2.3,2.3,0,0,1,73.53,25.66ZM75.28,53.8H71.69V31.35h3.59Z" style="fill:#f4f4f4"/><path d="M102.75,54.33a10.41,10.41,0,0,1-7.95-3.15,11.65,11.65,0,0,1-3-8.34q0-5.66,3.09-8.83a11.11,11.11,0,0,1,8.35-3.18,10.07,10.07,0,0,1,7.84,3.09q2.82,3.09,2.82,8.57a12.06,12.06,0,0,1-3,8.6A10.64,10.64,0,0,1,102.75,54.33ZM103,33.85a6.84,6.84,0,0,0-5.48,2.36,9.68,9.68,0,0,0-2,6.5,9.15,9.15,0,0,0,2,6.29A6.93,6.93,0,0,0,103,51.3,6.57,6.57,0,0,0,108.37,49a9.8,9.8,0,0,0,1.87-6.42,10,10,0,0,0-1.87-6.49A6.54,6.54,0,0,0,103,33.85Z" style="fill:#f4f4f4"/><path d="M149.63,53.8H146V50h-.09a8.3,8.3,0,0,1-7.72,4.34,8.38,8.38,0,0,1-6.76-3q-2.53-3-2.53-8.21a13.45,13.45,0,0,1,2.81-8.92,9.25,9.25,0,0,1,7.47-3.35,7.2,7.2,0,0,1,6.73,3.64H146V20.57h3.59ZM146,43.65V40.34a6.42,6.42,0,0,0-1.8-4.6,6,6,0,0,0-4.56-1.89,6.21,6.21,0,0,0-5.17,2.41,10.56,10.56,0,0,0-1.89,6.66,9.5,9.5,0,0,0,1.81,6.13,5.91,5.91,0,0,0,4.86,2.25,6.14,6.14,0,0,0,4.88-2.17A8.08,8.08,0,0,0,146,43.65Z" style="fill:#f4f4f4"/><path d="M169.56,25.66a2.28,2.28,0,0,1-1.64-.66,2.22,2.22,0,0,1-.68-1.67A2.3,2.3,0,0,1,169.56,21a2.32,2.32,0,0,1,1.68.67,2.34,2.34,0,0,1,0,3.32A2.3,2.3,0,0,1,169.56,25.66Zm1.75,28.14h-3.59V31.35h3.59Z" style="fill:#f4f4f4"/><path d="M207,31.35,198.1,53.8h-3.53l-8.5-22.45H190l5.7,16.31a14.6,14.6,0,0,1,.79,3.13h.09a14.82,14.82,0,0,1,.7-3l6-16.4Z" style="fill:#f4f4f4"/><path d="M239.74,43.48H223.89a8.4,8.4,0,0,0,2,5.79,7,7,0,0,0,5.3,2,11,11,0,0,0,7-2.5v3.38a13,13,0,0,1-7.83,2.15,9.49,9.49,0,0,1-7.47-3.06q-2.72-3.06-2.72-8.6a12.27,12.27,0,0,1,3-8.54,9.52,9.52,0,0,1,7.38-3.3,8.44,8.44,0,0,1,6.82,2.85q2.41,2.85,2.41,7.91Zm-3.68-3a7.31,7.31,0,0,0-1.5-4.84,5.12,5.12,0,0,0-4.11-1.73,5.81,5.81,0,0,0-4.32,1.82,8.25,8.25,0,0,0-2.19,4.76Z" style="fill:#f4f4f4"/><path d="M267.69,35a4.4,4.4,0,0,0-2.72-.72,4.59,4.59,0,0,0-3.85,2.17,10,10,0,0,0-1.55,5.92V53.8H256V31.35h3.59V36h.09A7.84,7.84,0,0,1,262,32.29,5.35,5.35,0,0,1,265.54,31a5.86,5.86,0,0,1,2.15.31Z" style="fill:#f4f4f4"/><path d="M281,53V49.13a10.64,10.64,0,0,0,6.47,2.17q4.73,0,4.73-3.16a2.74,2.74,0,0,0-.41-1.52,4,4,0,0,0-1.1-1.11,8.43,8.43,0,0,0-1.62-.87l-2-.8a25.77,25.77,0,0,1-2.62-1.19,7.92,7.92,0,0,1-1.89-1.36,5.05,5.05,0,0,1-1.14-1.72,6.09,6.09,0,0,1-.38-2.26,5.36,5.36,0,0,1,.72-2.79,6.42,6.42,0,0,1,1.93-2,9,9,0,0,1,2.75-1.24,12.21,12.21,0,0,1,3.19-.42,12.88,12.88,0,0,1,5.22,1v3.64a10.17,10.17,0,0,0-5.7-1.62,6.66,6.66,0,0,0-1.82.23,4.46,4.46,0,0,0-1.39.65,3,3,0,0,0-.9,1,2.63,2.63,0,0,0-.32,1.28,3.08,3.08,0,0,0,.32,1.47,3.23,3.23,0,0,0,.93,1.05,7.13,7.13,0,0,0,1.49.83q.88.37,2,.81a27.73,27.73,0,0,1,2.67,1.17,9.19,9.19,0,0,1,2,1.36,5.3,5.3,0,0,1,1.28,1.74,5.62,5.62,0,0,1,.45,2.35,5.53,5.53,0,0,1-.73,2.89,6.29,6.29,0,0,1-2,2,9,9,0,0,1-2.83,1.21,14,14,0,0,1-3.35.39A12.74,12.74,0,0,1,281,53Z" style="fill:#f4f4f4"/><path d="M314.09,25.66a2.28,2.28,0,0,1-1.64-.66,2.22,2.22,0,0,1-.68-1.67A2.3,2.3,0,0,1,314.09,21a2.32,2.32,0,0,1,1.68.67,2.34,2.34,0,0,1,0,3.32A2.3,2.3,0,0,1,314.09,25.66Zm1.75,28.14h-3.59V31.35h3.59Z" style="fill:#f4f4f4"/><path d="M344.34,53.58a6.93,6.93,0,0,1-3.35.7q-5.9,0-5.9-6.58V34.42h-3.86V31.35h3.86V25.87l3.59-1.16v6.64h5.66v3.07h-5.66V47.07a5.24,5.24,0,0,0,.77,3.22,3.06,3.06,0,0,0,2.54,1,3.78,3.78,0,0,0,2.35-.75Z" style="fill:#f4f4f4"/><path d="M377.81,31.35l-10.32,26q-2.76,7-7.76,7a8.23,8.23,0,0,1-2.35-.28V60.86a6.66,6.66,0,0,0,2.13.39q2.72,0,4.08-3.24l1.8-4.25-8.77-22.4h4l6.07,17.27q.11.33.46,1.71h.13q.11-.53.44-1.67l6.38-17.32Z" style="fill:#f4f4f4"/><path d="M42.38,76.24v3.16H39.31v25.12h3.07v3.16H32.56v-3.16h3.07V79.39H32.56V76.24Z" style="fill:#f4f4f4"/><path d="M77.12,107.67H73.52V94.87q0-7.15-5.22-7.15a5.66,5.66,0,0,0-4.46,2,7.51,7.51,0,0,0-1.76,5.12v12.8H58.48V85.22h3.59v3.73h.09a8.1,8.1,0,0,1,7.36-4.25,6.87,6.87,0,0,1,5.63,2.38q2,2.38,2,6.87Z" style="fill:#f4f4f4"/><path d="M106.37,77.6A4.79,4.79,0,0,0,104,77q-3.77,0-3.77,4.76v3.46h5.26v3.07h-5.26v19.38H96.64V88.29H92.8V85.22h3.84V81.58a7.56,7.56,0,0,1,2-5.58,6.88,6.88,0,0,1,5.09-2,7,7,0,0,1,2.61.39Z" style="fill:#f4f4f4"/><path d="M130.1,108.19a10.41,10.41,0,0,1-7.95-3.15,11.65,11.65,0,0,1-3-8.34q0-5.66,3.09-8.83a11.11,11.11,0,0,1,8.35-3.18,10.07,10.07,0,0,1,7.84,3.09q2.82,3.09,2.82,8.57a12.06,12.06,0,0,1-3,8.6A10.64,10.64,0,0,1,130.1,108.19Zm.26-20.47a6.84,6.84,0,0,0-5.48,2.36,9.68,9.68,0,0,0-2,6.5,9.15,9.15,0,0,0,2,6.29,6.93,6.93,0,0,0,5.46,2.3,6.57,6.57,0,0,0,5.36-2.26,9.8,9.8,0,0,0,1.87-6.42A10,10,0,0,0,135.73,90,6.54,6.54,0,0,0,130.37,87.72Z" style="fill:#f4f4f4"/><path d="M170.12,88.86a4.4,4.4,0,0,0-2.72-.72,4.59,4.59,0,0,0-3.85,2.17A10,10,0,0,0,162,96.23v11.44h-3.59V85.22H162v4.62h.09a7.84,7.84,0,0,1,2.35-3.69A5.35,5.35,0,0,1,168,84.83a5.86,5.86,0,0,1,2.15.31Z" style="fill:#f4f4f4"/><path d="M217.29,107.67h-3.59V94.78q0-3.73-1.15-5.39a4.37,4.37,0,0,0-3.87-1.67,4.79,4.79,0,0,0-3.91,2.1,8,8,0,0,0-1.61,5v12.8h-3.59V94.34q0-6.62-5.11-6.62a4.73,4.73,0,0,0-3.9,2A8.2,8.2,0,0,0,189,94.87v12.8h-3.59V85.22H189v3.55h.09a7.63,7.63,0,0,1,7-4.08,6.48,6.48,0,0,1,6.36,4.65,8,8,0,0,1,7.45-4.65q7.41,0,7.41,9.14Z" style="fill:#f4f4f4"/><path d="M251.54,107.67h-3.59v-3.51h-.09a7.53,7.53,0,0,1-6.9,4,7.38,7.38,0,0,1-5.25-1.78,6.15,6.15,0,0,1-1.9-4.71q0-6.29,7.41-7.32l6.73-.94q0-5.72-4.62-5.72A11,11,0,0,0,236,90.48V86.8a13.91,13.91,0,0,1,7.63-2.1q7.91,0,7.91,8.37Zm-3.59-11.35-5.41.75a8.78,8.78,0,0,0-3.77,1.24,3.57,3.57,0,0,0-1.27,3.15,3.43,3.43,0,0,0,1.17,2.69,4.53,4.53,0,0,0,3.12,1,5.77,5.77,0,0,0,4.42-1.87,6.7,6.7,0,0,0,1.74-4.75Z" style="fill:#f4f4f4"/><path d="M280.11,107.45a6.93,6.93,0,0,1-3.35.7q-5.9,0-5.9-6.58V88.29H267V85.22h3.86V79.74l3.59-1.16v6.64h5.66v3.07h-5.66v12.65a5.24,5.24,0,0,0,.77,3.22,3.06,3.06,0,0,0,2.54,1,3.78,3.78,0,0,0,2.35-.75Z" style="fill:#f4f4f4"/><path d="M298.15,79.52a2.28,2.28,0,0,1-1.64-.66,2.22,2.22,0,0,1-.68-1.67,2.3,2.3,0,0,1,2.32-2.35,2.32,2.32,0,0,1,1.68.67,2.34,2.34,0,0,1,0,3.32A2.3,2.3,0,0,1,298.15,79.52Zm1.75,28.14h-3.59V85.22h3.59Z" style="fill:#f4f4f4"/><path d="M328,108.19A10.41,10.41,0,0,1,320,105a11.65,11.65,0,0,1-3-8.34q0-5.66,3.09-8.83a11.11,11.11,0,0,1,8.35-3.18,10.07,10.07,0,0,1,7.84,3.09q2.82,3.09,2.82,8.57a12.06,12.06,0,0,1-3,8.6A10.64,10.64,0,0,1,328,108.19Zm.26-20.47a6.84,6.84,0,0,0-5.48,2.36,9.68,9.68,0,0,0-2,6.5,9.15,9.15,0,0,0,2,6.29,6.93,6.93,0,0,0,5.46,2.3,6.57,6.57,0,0,0,5.36-2.26,9.8,9.8,0,0,0,1.87-6.42A10,10,0,0,0,333.57,90,6.54,6.54,0,0,0,328.22,87.72Z" style="fill:#f4f4f4"/><path d="M374.9,107.67H371.3V94.87q0-7.15-5.22-7.15a5.66,5.66,0,0,0-4.46,2,7.52,7.52,0,0,0-1.76,5.12v12.8h-3.59V85.22h3.59v3.73h.09a8.1,8.1,0,0,1,7.36-4.25,6.87,6.87,0,0,1,5.63,2.38q2,2.38,2,6.87Z" style="fill:#f4f4f4"/><path d="M34.16,160.26v-4.34a8.42,8.42,0,0,0,1.79,1.18,14.46,14.46,0,0,0,2.19.89,17.44,17.44,0,0,0,2.31.56,12.89,12.89,0,0,0,2.15.2,8.41,8.41,0,0,0,5.07-1.26,4.73,4.73,0,0,0,1.12-5.84,6.3,6.3,0,0,0-1.55-1.72,15.33,15.33,0,0,0-2.33-1.49q-1.35-.71-2.9-1.5t-3.07-1.69a13.28,13.28,0,0,1-2.48-1.89A7.87,7.87,0,0,1,34.81,141a8,8,0,0,1,.34-6.79,8.08,8.08,0,0,1,2.48-2.62,11.22,11.22,0,0,1,3.5-1.53,16,16,0,0,1,4-.5q4.65,0,6.77,1.12v4.14a12.28,12.28,0,0,0-7.15-1.93,11.77,11.77,0,0,0-2.41.25,6.79,6.79,0,0,0-2.15.82,4.76,4.76,0,0,0-1.53,1.47,3.9,3.9,0,0,0-.59,2.19,4.51,4.51,0,0,0,.45,2.08,5.1,5.1,0,0,0,1.33,1.6,13.16,13.16,0,0,0,2.14,1.4q1.26.68,2.9,1.49t3.2,1.75a14.63,14.63,0,0,1,2.65,2,9.07,9.07,0,0,1,1.81,2.48,7,7,0,0,1,.67,3.11,7.9,7.9,0,0,1-.91,3.93,7.46,7.46,0,0,1-2.45,2.62,10.72,10.72,0,0,1-3.56,1.46,19.53,19.53,0,0,1-4.25.45,17.4,17.4,0,0,1-1.84-.12q-1.1-.12-2.24-.35a18.18,18.18,0,0,1-2.16-.57A6.73,6.73,0,0,1,34.16,160.26Z" style="fill:#f4f4f4"/><path d="M88,161.32a6.93,6.93,0,0,1-3.35.7q-5.9,0-5.9-6.58V142.16H74.91v-3.07h3.86v-5.48l3.59-1.16v6.64H88v3.07H82.36v12.65a5.24,5.24,0,0,0,.77,3.22,3.06,3.06,0,0,0,2.54,1,3.78,3.78,0,0,0,2.35-.75Z" style="fill:#f4f4f4"/><path d="M127.49,161.54h-3.59V158h-.09a7.53,7.53,0,0,1-6.9,4,7.38,7.38,0,0,1-5.25-1.78,6.15,6.15,0,0,1-1.9-4.71q0-6.29,7.41-7.32l6.73-.94q0-5.72-4.62-5.72a11,11,0,0,0-7.32,2.76v-3.68a13.91,13.91,0,0,1,7.63-2.1q7.91,0,7.91,8.37Zm-3.59-11.35-5.41.75a8.78,8.78,0,0,0-3.77,1.24,3.57,3.57,0,0,0-1.27,3.15,3.43,3.43,0,0,0,1.17,2.69,4.53,4.53,0,0,0,3.12,1,5.77,5.77,0,0,0,4.42-1.87,6.7,6.7,0,0,0,1.74-4.75Z" style="fill:#f4f4f4"/><path d="M171.5,161.54H167.9v-12.8q0-7.15-5.22-7.15a5.66,5.66,0,0,0-4.46,2,7.52,7.52,0,0,0-1.76,5.12v12.8h-3.59V139.09h3.59v3.73h.09a8.1,8.1,0,0,1,7.36-4.25,6.87,6.87,0,0,1,5.63,2.38q2,2.38,2,6.87Z" style="fill:#f4f4f4"/><path d="M216,161.54h-3.59v-3.81h-.09a8.3,8.3,0,0,1-7.72,4.34,8.38,8.38,0,0,1-6.76-3q-2.53-3-2.53-8.21a13.45,13.45,0,0,1,2.81-8.92,9.25,9.25,0,0,1,7.47-3.35,7.2,7.2,0,0,1,6.73,3.64h.09v-13.9H216Zm-3.59-10.15v-3.31a6.42,6.42,0,0,0-1.8-4.6,6,6,0,0,0-4.56-1.89,6.21,6.21,0,0,0-5.17,2.41,10.56,10.56,0,0,0-1.89,6.66,9.5,9.5,0,0,0,1.81,6.13,5.91,5.91,0,0,0,4.86,2.25,6.14,6.14,0,0,0,4.88-2.17A8.08,8.08,0,0,0,212.44,151.39Z" style="fill:#f4f4f4"/><path d="M258,161.54h-3.59V158h-.09a7.53,7.53,0,0,1-6.9,4,7.38,7.38,0,0,1-5.25-1.78,6.15,6.15,0,0,1-1.9-4.71q0-6.29,7.41-7.32l6.73-.94q0-5.72-4.62-5.72a11,11,0,0,0-7.32,2.76v-3.68a13.91,13.91,0,0,1,7.63-2.1q7.91,0,7.91,8.37Zm-3.59-11.35-5.41.75a8.78,8.78,0,0,0-3.77,1.24,3.57,3.57,0,0,0-1.27,3.15,3.43,3.43,0,0,0,1.17,2.69,4.53,4.53,0,0,0,3.12,1,5.77,5.77,0,0,0,4.42-1.87,6.7,6.7,0,0,0,1.74-4.75Z" style="fill:#f4f4f4"/><path d="M295.07,142.73a4.4,4.4,0,0,0-2.72-.72,4.59,4.59,0,0,0-3.85,2.17,10,10,0,0,0-1.55,5.92v11.44h-3.59V139.09H287v4.62H287A7.84,7.84,0,0,1,289.4,140a5.35,5.35,0,0,1,3.53-1.33,5.86,5.86,0,0,1,2.15.31Z" style="fill:#f4f4f4"/><path d="M336.74,161.54h-3.59v-3.81h-.09a8.3,8.3,0,0,1-7.72,4.34,8.38,8.38,0,0,1-6.76-3q-2.53-3-2.53-8.21a13.45,13.45,0,0,1,2.81-8.92,9.25,9.25,0,0,1,7.47-3.35,7.2,7.2,0,0,1,6.73,3.64h.09v-13.9h3.59Zm-3.59-10.15v-3.31a6.42,6.42,0,0,0-1.8-4.6,6,6,0,0,0-4.56-1.89,6.21,6.21,0,0,0-5.17,2.41,10.56,10.56,0,0,0-1.89,6.66,9.5,9.5,0,0,0,1.81,6.13,5.91,5.91,0,0,0,4.86,2.25,6.14,6.14,0,0,0,4.88-2.17A8.08,8.08,0,0,0,333.14,151.39Z" style="fill:#f4f4f4"/><path d="M361.26,160.73v-3.86a10.64,10.64,0,0,0,6.47,2.17q4.73,0,4.73-3.16a2.74,2.74,0,0,0-.41-1.52,4,4,0,0,0-1.1-1.11,8.43,8.43,0,0,0-1.62-.87l-2-.8a25.77,25.77,0,0,1-2.62-1.19,7.92,7.92,0,0,1-1.89-1.36,5.05,5.05,0,0,1-1.14-1.72,6.09,6.09,0,0,1-.38-2.26,5.36,5.36,0,0,1,.72-2.79,6.42,6.42,0,0,1,1.93-2,9,9,0,0,1,2.75-1.24,12.21,12.21,0,0,1,3.19-.42,12.88,12.88,0,0,1,5.22,1v3.64a10.17,10.17,0,0,0-5.7-1.62,6.66,6.66,0,0,0-1.82.23,4.46,4.46,0,0,0-1.39.65,3,3,0,0,0-.9,1,2.63,2.63,0,0,0-.32,1.28,3.08,3.08,0,0,0,.32,1.47,3.23,3.23,0,0,0,.93,1.05,7.13,7.13,0,0,0,1.49.83q.88.37,2,.81a27.73,27.73,0,0,1,2.67,1.17,9.19,9.19,0,0,1,2,1.36,5.3,5.3,0,0,1,1.28,1.74,5.62,5.62,0,0,1,.45,2.35,5.53,5.53,0,0,1-.73,2.89,6.29,6.29,0,0,1-2,2,9,9,0,0,1-2.83,1.21,14,14,0,0,1-3.35.39A12.74,12.74,0,0,1,361.26,160.73Z" style="fill:#f4f4f4"/><path d="M71.2,189.74h-14v25.67H46.12V189.74H32.19V184h39Z" style="fill:#f4f4f4"/><path d="M129.94,215.41V184h17.82q26.81,0,26.8,15.32,0,7.34-7.32,11.73t-19.49,4.38Zm11.33-25.67v19.92h5.61q7.37,0,11.56-2.76a8.58,8.58,0,0,0,4.19-7.52,8,8,0,0,0-4.16-7.07q-4.16-2.58-11.67-2.58Z" style="fill:#f4f4f4"/><path d="M277.65,184l-9.31,31.43h-8.79l-5.85-20.17a15.13,15.13,0,0,1-.56-3.53H253a19.3,19.3,0,0,1-.64,3.53l-6,20.17h-9.16L228,184h8.67l5,20.93a22.46,22.46,0,0,1,.47,3.59h.15a15.7,15.7,0,0,1,.71-3.68L249.33,184h8.5l5.77,21.11a23.27,23.27,0,0,1,.56,3.38h.1a20.27,20.27,0,0,1,.52-3.51l4.86-21Z" style="fill:#f4f4f4"/><path d="M375.51,213.3Q368.17,216,357.27,216q-12.09,0-19.06-4.2t-7-11.56q0-7.41,7.62-12.08t20.27-4.67a63.86,63.86,0,0,1,14,1.38v6.64a41.85,41.85,0,0,0-14.19-2.1q-7,0-11.44,2.86a8.73,8.73,0,0,0-4.42,7.64,8.5,8.5,0,0,0,4,7.5q4,2.65,10.71,2.65a22.87,22.87,0,0,0,6.43-.72v-6.14h-10V197.5h21.32Z" style="fill:#f4f4f4"/></g></g></svg>