<?xml version="1.0" encoding="UTF-8" standalone="no"?>
<svg
   xmlns:dc="http://purl.org/dc/elements/1.1/"
   xmlns:cc="http://creativecommons.org/ns#"
   xmlns:rdf="http://www.w3.org/1999/02/22-rdf-syntax-ns#"
   xmlns:svg="http://www.w3.org/2000/svg"
   xmlns="http://www.w3.org/2000/svg"
   width="360"
   height="190.16313"
   viewBox="0 0 360 190.16313"
   version="1.1"
   id="svg6054">
  <metadata
     id="metadata6058">
    <rdf:RDF>
      <cc:Work
         rdf:about="">
        <dc:format>image/svg+xml</dc:format>
        <dc:type
           rdf:resource="http://purl.org/dc/dcmitype/StillImage" />
        <dc:title></dc:title>
      </cc:Work>
    </rdf:RDF>
  </metadata>
  <g
     id="logo">
    <g
       style="fill:#6f9243"
       id="bis">
      <path
         d="m 21.062667,23.119978 c 0,-1.166718 -0.15366,-2.133906 -0.491258,-2.88612 -0.337592,-0.76762 -1.01321,-1.39702 -2.02642,-1.934338 -0.644806,-0.35292 -1.366326,-0.568012 -2.133906,-0.6755 -0.782948,-0.09196 -1.872912,-0.13794 -3.285298,-0.13794 H 8.412773 v 11.483136 h 3.377418 c 1.796158,0 3.239238,-0.09196 4.267774,-0.245628 1.043944,-0.169 1.965032,-0.521952 2.763346,-1.074638 0.782948,-0.537278 1.35096,-1.166718 1.704038,-1.842216 0.368246,-0.690828 0.537318,-1.581222 0.537318,-2.686552 z M 19.604259,9.0116784 c 0,-0.76762 -0.12262,-1.412386 -0.368246,-1.965032 -0.24563,-0.537318 -0.660134,-0.982516 -1.212818,-1.3049 -0.660094,-0.368246 -1.412348,-0.598744 -2.225988,-0.690866 -0.829008,-0.07664 -1.965032,-0.12262 -3.408114,-0.12262 H 8.412971 v 9.1190056 h 4.71301 c 1.289572,0 2.241354,-0.07664 2.855428,-0.19964 0.614072,-0.13834 1.24351,-0.414504 1.903644,-0.829008 0.6294,-0.414504 1.05927,-0.936456 1.335592,-1.596588 0.260956,-0.660134 0.383968,-1.4584476 0.383968,-2.4102296 z M 25.376541,22.96647 c 0,1.535162 -0.291612,2.901488 -0.875068,4.083572 -0.58338,1.182086 -1.366288,2.164602 -2.36417,2.916854 -1.166758,0.92109 -2.425596,1.581222 -3.745862,1.949666 -1.335592,0.383968 -3.070362,0.583378 -5.188902,0.583378 H 4.2831408 V 1.3971794 h 8.2439382 c 2.225988,0 3.884004,0.076636 4.989334,0.2303018 1.10533,0.138338 2.1646,0.4758914 3.17781,1.0285764 1.120698,0.5987068 1.934338,1.3816528 2.45629,2.3488428 0.506624,0.967148 0.76758,2.103172 0.76758,3.423438 0,1.458408 -0.399136,2.7633056 -1.166718,3.9146976 -0.76758,1.166758 -1.842216,2.072518 -3.208542,2.717286 v 0.169 c 1.857584,0.506586 3.300664,1.412348 4.313874,2.74798 1.01321,1.320226 1.519834,2.993608 1.519834,4.989334"
         id="path1907" />
      <path
         d="M 45.579507,32.499942 H 41.664809 V 9.1651856 h 3.914698 z M 45.855791,5.2658156 H 41.388407 V 1.1822438 h 4.467384 z m 0,0"
         id="path1909" />
      <path
         d="m 81.456707,20.84793 c 0,-3.024342 -0.537318,-5.265696 -1.642648,-6.73947 -1.10533,-1.473774 -2.671226,-2.195294 -4.697644,-2.195294 -2.041788,0 -3.623048,0.72152 -4.743706,2.195294 -1.090004,1.473774 -1.642648,3.715128 -1.642648,6.73947 0,2.932182 0.552644,5.142842 1.642648,6.64731 1.120658,1.519834 2.701918,2.256722 4.743706,2.256722 2.011092,0 3.576946,-0.736888 4.682278,-2.210662 1.120696,-1.48914 1.658014,-3.715128 1.658014,-6.69337 z m 4.052879,0 c 0,3.930064 -0.936455,6.954366 -2.8401,9.088272 -1.888277,2.133868 -4.405955,3.208506 -7.553071,3.208506 -3.239238,0 -5.802976,-1.105332 -7.645195,-3.300626 -1.87295,-2.21066 -2.794039,-5.20427 -2.794039,-8.996152 0,-3.89937 0.951821,-6.923672 2.870793,-9.088274 1.903606,-2.1646379 4.43665,-3.2392359 7.568441,-3.2392359 3.147116,0 5.664794,1.074598 7.553071,3.2238699 1.903644,2.164602 2.8401,5.188904 2.8401,9.10364"
         id="path1911" />
      <path
         d="M 114.26356,26.819782 V 13.371574 c -0.9672,-0.475892 -1.84222,-0.798274 -2.62518,-0.982516 -0.76762,-0.18432 -1.59658,-0.276284 -2.50234,-0.276284 -2.02647,0 -3.60768,0.752254 -4.7437,2.272048 -1.1514,1.519836 -1.71942,3.684436 -1.71942,6.539902 0,2.74798 0.4452,4.851154 1.32024,6.3096 0.87506,1.443042 2.28744,2.179928 4.22174,2.179928 1.02858,0 2.07252,-0.230302 3.11642,-0.706154 1.04396,-0.460564 2.0111,-1.090004 2.93224,-1.888278 z m 3.93006,5.68016 h -3.93006 v -2.379536 c -0.61408,0.506624 -1.13608,0.936456 -1.58128,1.274206 -0.44518,0.322264 -0.96714,0.644766 -1.56588,0.921088 -0.55266,0.260956 -1.13602,0.460564 -1.73474,0.614072 -0.59874,0.13834 -1.3049,0.214976 -2.08784,0.214976 -1.2742,0 -2.44096,-0.260956 -3.51556,-0.782948 -1.07464,-0.537318 -1.99576,-1.3049 -2.74798,-2.333476 -0.76758,-1.01321 -1.366325,-2.287414 -1.780845,-3.807248 -0.4145,-1.504468 -0.6294,-3.239238 -0.6294,-5.219598 0,-2.041786 0.2763,-3.807248 0.81366,-5.29639 0.52194,-1.504468 1.243465,-2.809366 2.179965,-3.930064 0.84433,-1.01321 1.87289,-1.8115245 3.08568,-2.3795365 1.19746,-0.583338 2.4563,-0.875028 3.79192,-0.875028 1.16672,0 2.17993,0.12262 3.03964,0.383574 0.8597,0.276284 1.78082,0.660132 2.73266,1.1974525 V 1.9451042e-6 h 3.93006 V 32.499784"
         id="path1913" />
      <path
         d="m 138.58082,32.499942 h -3.93008 V 9.1651856 h 3.93008 z M 138.84176,5.2658156 H 134.3744 V 1.1822438 h 4.46736 z m 0,0"
         id="path1915" />
      <path
         d="m 175.08741,9.1651866 -8.79658,23.3347544 h -3.53092 L 154.02472,9.1651866 h 4.25244 l 6.38635,18.0076724 6.32496,-18.0076724 h 4.09894"
         id="path1917" />
      <path
         d="m 206.88101,18.238092 c -0.016,-1.05927 -0.138,-1.98036 -0.36824,-2.732614 -0.23032,-0.782946 -0.55266,-1.412346 -0.96716,-1.949664 -0.46058,-0.58338 -1.04394,-1.028578 -1.76546,-1.335634 -0.7062,-0.306938 -1.5966,-0.460524 -2.65586,-0.460524 -1.04394,0 -1.93434,0.15366 -2.65586,0.475892 -0.73688,0.306938 -1.41238,0.76758 -2.01108,1.366326 -0.58338,0.614072 -1.02858,1.289532 -1.33564,2.02642 -0.29162,0.752252 -0.49126,1.611954 -0.58334,2.609798 z m -4.5902,14.799166 c -3.71514,0 -6.60125,-1.043942 -8.6584,-3.147116 -2.05716,-2.087846 -3.08573,-5.066128 -3.08573,-8.919398 0,-3.80725 0.99788,-6.831592 2.99362,-9.072946 1.99572,-2.2567219 4.59017,-3.3773799 7.81405,-3.3773799 1.44308,0 2.71728,0.214976 3.83794,0.6294 1.1207,0.414504 2.08784,1.0746379 2.91686,1.9650319 0.84436,0.890434 1.48914,1.980398 1.93434,3.254604 0.4452,1.3049 0.66012,2.870794 0.66012,4.743706 v 2.133906 h -16.16543 c 0,2.70192 0.69082,4.789766 2.0571,6.21748 1.35095,1.44308 3.23923,2.149234 5.64947,2.149234 0.87506,0 1.70408,-0.09196 2.5484,-0.291612 0.81364,-0.19964 1.5659,-0.445236 2.24136,-0.752252 0.7062,-0.322266 1.30494,-0.62944 1.7962,-0.936456 0.49126,-0.291612 0.8904,-0.568012 1.21278,-0.844374 h 0.21496 v 4.28318 c -0.44518,0.18432 -1.02856,0.414504 -1.70406,0.67546 -0.67546,0.276284 -1.28954,0.491258 -1.84222,0.644806 -0.76758,0.19964 -1.45842,0.368246 -2.07248,0.47589 -0.61408,0.12262 -1.39702,0.169 -2.34884,0.169"
         id="path1919" />
      <path
         d="m 239.44221,13.386941 h -0.1996 l -0.93646,-0.15366 c -0.3376,-0.0158 -0.72156,-0.03144 -1.18212,-0.03144 -1.05928,0 -2.10318,0.2303 -3.16246,0.690826 -1.04394,0.460564 -2.02646,1.136064 -2.9629,2.041826 v 16.564584 h -3.91474 V 9.1651866 h 3.9147 v 3.4695004 c 1.4277,-1.25884 2.68654,-2.149234 3.76118,-2.6865524 1.05928,-0.521952 2.08784,-0.782948 3.10106,-0.782948 0.39918,0 0.69086,0.0158 0.90576,0.03144 l 0.6755,0.10768 v 4.0835744"
         id="path1921" />
      <path
         d="m 261.1957,33.067954 c -1.55052,0 -3.00894,-0.214976 -4.37526,-0.62944 -1.35096,-0.429832 -2.47162,-0.859702 -3.37738,-1.335592 v -4.405956 h 0.21498 c 0.3376,0.260956 0.73688,0.552646 1.18208,0.875028 0.46052,0.322266 1.0439,0.660134 1.8115,0.997882 0.66012,0.306938 1.397,0.58338 2.19532,0.813642 0.79828,0.230302 1.62728,0.35292 2.50236,0.35292 0.61408,0 1.28954,-0.07664 1.99572,-0.214974 0.72152,-0.15366 1.24352,-0.322266 1.58122,-0.552686 0.50664,-0.322264 0.8597,-0.660132 1.05928,-1.028576 0.21498,-0.35292 0.3376,-0.890396 0.3376,-1.627282 0,-0.92109 -0.26096,-1.64265 -0.7676,-2.103214 -0.50662,-0.47589 -1.41238,-0.875028 -2.7019,-1.197412 -0.50664,-0.12262 -1.16676,-0.260956 -1.96506,-0.42987 -0.81362,-0.169 -1.55052,-0.35292 -2.24134,-0.552646 -1.78082,-0.506624 -3.07036,-1.304898 -3.884,-2.379536 -0.79832,-1.090002 -1.21282,-2.394902 -1.21282,-3.914736 0,-2.103174 0.79832,-3.822576 2.37954,-5.142842 1.59658,-1.3202659 3.6998,-1.9803979 6.3403,-1.9803979 1.28956,0 2.59446,0.15366 3.89936,0.47593 1.3049,0.322266 2.41024,0.72152 3.30062,1.2127779 v 4.19106 h -0.21496 c -0.99788,-0.782948 -2.11858,-1.412386 -3.34674,-1.872912 -1.22814,-0.460564 -2.4716,-0.690866 -3.73048,-0.690866 -1.28954,0 -2.3795,0.276284 -3.28526,0.813682 -0.87508,0.537278 -1.32028,1.366286 -1.32028,2.471616 0,0.96719 0.26096,1.68871 0.78296,2.179968 0.53732,0.47589 1.38164,0.875068 2.5484,1.166718 0.58334,0.15366 1.22816,0.306938 1.94968,0.460564 0.72152,0.15366 1.47376,0.306938 2.27204,0.506624 1.7194,0.429832 3.02434,1.151392 3.89938,2.149234 0.87506,1.01325 1.3049,2.36421 1.3049,4.09894 0,0.997882 -0.21498,1.949704 -0.59872,2.855426 -0.39914,0.890436 -0.98252,1.658016 -1.7501,2.302782 -0.829,0.690826 -1.78082,1.228146 -2.82472,1.581262 -1.05928,0.368246 -2.36422,0.552646 -3.9608,0.552646"
         id="path1923" />
      <path
         d="M 290.39486,32.499942 H 286.4648 V 9.1651856 h 3.93006 z m 0.27628,-27.2341264 h -4.48269 V 1.1822438 h 4.48269 z m 0,0"
         id="path1925" />
      <path
         d="m 318.18162,32.960507 c -2.14924,0 -3.82257,-0.614074 -5.02002,-1.826892 -1.19745,-1.228144 -1.79618,-3.147116 -1.79618,-5.77228 V 12.419751 H 308.7249 V 9.1651866 h 2.64052 v -6.69341 h 3.93008 v 6.69341 h 7.23068 v 3.2545644 h -7.23068 v 11.099366 c 0,1.182084 0.0314,2.087846 0.0614,2.732652 0.046,0.644766 0.1996,1.243472 0.49126,1.796158 0.2303,0.491258 0.61406,0.8597 1.13608,1.089964 0.5373,0.245628 1.25882,0.368246 2.14922,0.368246 0.64478,0 1.2742,-0.09196 1.8729,-0.276284 0.59876,-0.18432 1.02858,-0.35292 1.28958,-0.47593 h 0.2303 v 3.530926 c -0.73688,0.214974 -1.4891,0.368248 -2.25672,0.491258 -0.7522,0.12262 -1.44304,0.18432 -2.08784,0.18432"
         id="path1927" />
      <path
         d="M 355.31767,9.1651866 342.75991,41.096957 h -4.19109 l 4.1757,-9.73304 -8.47418,-22.1987304 h 4.23712 l 6.37098,17.2707844 6.3403,-17.2707844 h 4.09894"
         id="path1929" />
      <path
         d="M 15.152245,82.792459 H 3.0703623 v -3.17781 H 7.0464868 V 54.867547 H 3.0703623 v -3.17785 H 15.152245 v 3.17785 h -3.976126 v 24.747102 h 3.976126 v 3.17781"
         id="path1931" />
      <path
         d="M 53.224738,82.79246 H 49.310002 V 69.4978 c 0,-1.074636 -0.0613,-2.057152 -0.15366,-2.993608 -0.1073,-0.92109 -0.306938,-1.673342 -0.598706,-2.225988 -0.322266,-0.58338 -0.76762,-1.01325 -1.335632,-1.3049 -0.583378,-0.276284 -1.366286,-0.42987 -2.348802,-0.42987 -0.96719,0 -1.9804,0.276284 -3.008976,0.782948 -1.043904,0.521952 -2.057152,1.212778 -3.039668,2.041786 V 82.79246 H 34.894489 V 59.457704 h 3.930064 v 2.594472 c 1.166756,-1.043904 2.318147,-1.857584 3.469538,-2.41023 1.136024,-0.552684 2.333476,-0.829008 3.607642,-0.829008 2.287453,0 4.083612,0.752254 5.388509,2.272088 1.289534,1.504468 1.934341,3.684436 1.934341,6.55523 V 82.79246"
         id="path1933" />
      <path
         d="m 80.858001,54.053867 h -0.214974 c -0.337594,-0.13834 -0.844374,-0.260956 -1.489142,-0.368248 -0.660132,-0.12262 -1.243472,-0.18432 -1.765462,-0.18432 -1.657976,0 -2.824734,0.383968 -3.530888,1.120698 -0.706194,0.752214 -1.05931,2.087846 -1.05931,4.037512 v 0.798274 h 6.493842 v 3.254604 H 72.921041 V 82.777211 H 69.006343 V 62.712309 h -2.655859 v -3.254604 h 2.655859 v -0.76758 c 0,-2.809368 0.660133,-4.958642 2.011092,-6.417048 1.35096,-1.458408 3.285299,-2.195296 5.818342,-2.195296 0.72152,0 1.427714,0.04598 2.11854,0.1073 0.706194,0.09196 1.335594,0.169 1.903644,0.260956 v 3.607642"
         id="path1935" />
      <path
         d="m 112.31385,71.125082 c 0,-3.008936 -0.55264,-5.265656 -1.65799,-6.724064 -1.10534,-1.473774 -2.65585,-2.21066 -4.69767,-2.21066 -2.0418,0 -3.62302,0.736886 -4.72835,2.21066 -1.10534,1.458408 -1.658015,3.715128 -1.658015,6.724064 0,2.932222 0.552675,5.142882 1.658015,6.662716 1.10533,1.504468 2.68655,2.256722 4.72835,2.256722 2.02646,0 3.57697,-0.736888 4.68232,-2.210662 1.1207,-1.48914 1.67334,-3.715168 1.67334,-6.708776 z m 4.05288,0 c 0,3.930064 -0.95182,6.969734 -2.85544,9.10364 -1.88829,2.11854 -4.40594,3.193178 -7.5531,3.193178 -3.23921,0 -5.80299,-1.089964 -7.660525,-3.300626 -1.84222,-2.21066 -2.77872,-5.20427 -2.77872,-8.996192 0,-3.89933 0.95182,-6.923632 2.8708,-9.088272 1.918965,-2.149234 4.436685,-3.223872 7.568445,-3.223872 3.14716,0 5.66482,1.074638 7.5531,3.223872 1.90362,2.149272 2.85544,5.173576 2.85544,9.088272"
         id="path1937" />
      <path
         d="m 146.01107,63.679456 h -0.21496 l -0.9211,-0.15366 c -0.3376,-0.03144 -0.7369,-0.03144 -1.18208,-0.03144 -1.05928,0 -2.11858,0.230302 -3.1625,0.67546 -1.04394,0.460564 -2.02646,1.151392 -2.9629,2.057154 v 16.56459 h -3.9147 V 59.4568 h 3.9147 v 3.469538 c 1.4277,-1.274206 2.68658,-2.1646 3.74586,-2.686592 1.07464,-0.521952 2.10316,-0.782946 3.10106,-0.782946 0.4145,0 0.70618,0.0158 0.90576,0.03144 l 0.69082,0.09196 v 4.098938"
         id="path1939" />
      <path
         d="M 190.5006,82.79246 V 69.298232 c 0,-1.074638 -0.0314,-2.07248 -0.1226,-2.993608 -0.0766,-0.890396 -0.24563,-1.611916 -0.52195,-2.133908 -0.27628,-0.552646 -0.67546,-0.951782 -1.18208,-1.228144 -0.52196,-0.260956 -1.22814,-0.399138 -2.08785,-0.399138 -0.81366,0 -1.67336,0.260956 -2.6098,0.752254 -0.92113,0.491258 -1.87295,1.197412 -2.85548,2.133906 l 0.046,0.844336 c 0.016,0.322264 0.0314,0.72152 0.0314,1.166718 V 82.79246 h -3.93007 V 69.298232 c 0,-1.074638 -0.046,-2.07248 -0.1226,-2.993608 -0.092,-0.890396 -0.26096,-1.611916 -0.52197,-2.133908 -0.27628,-0.552646 -0.67546,-0.951782 -1.19743,-1.228144 -0.50662,-0.260956 -1.21282,-0.399138 -2.08784,-0.399138 -0.84438,0 -1.73478,0.276284 -2.6559,0.798314 -0.93646,0.537278 -1.84222,1.212778 -2.73262,2.02642 V 82.79246 h -3.93006 V 59.457704 h 3.93006 v 2.594472 c 1.04395,-1.043904 2.05717,-1.82685 3.07036,-2.394864 0.99791,-0.56805 2.11854,-0.844374 3.33137,-0.844374 1.3663,0 2.59444,0.306938 3.65374,0.936456 1.0746,0.62944 1.88824,1.658016 2.44094,3.08573 1.18208,-1.320266 2.33346,-2.31811 3.4695,-2.993608 1.12068,-0.690828 2.34884,-1.028578 3.6691,-1.028578 0.99784,0 1.91898,0.15366 2.73262,0.460564 0.829,0.322266 1.53516,0.829008 2.14922,1.519836 0.62944,0.706192 1.1207,1.596588 1.45846,2.655858 0.33758,1.05927 0.50658,2.379536 0.50658,3.991452 V 82.79246 h -3.93006"
         id="path1941" />
      <path
         d="m 225.37993,77.05091 v -6.478474 c -0.93646,0.07664 -2.11854,0.19964 -3.54626,0.337592 -1.41238,0.13794 -2.56374,0.35292 -3.45416,0.614072 -1.02858,0.322266 -1.90362,0.813642 -2.57912,1.473774 -0.69082,0.660134 -1.02856,1.581222 -1.02856,2.763308 0,1.335632 0.36824,2.348842 1.13606,3.024302 0.75222,0.690826 1.84222,1.028576 3.28526,1.028576 1.2435,0 2.3642,-0.276284 3.36204,-0.798274 1.01326,-0.53732 1.94972,-1.197452 2.82474,-1.965032 z m 0,3.254566 c -0.32226,0.2303 -0.75222,0.552684 -1.28954,0.982516 -0.53732,0.42987 -1.04394,0.76758 -1.55052,1.013208 -0.69082,0.368248 -1.36632,0.644806 -2.0111,0.829008 -0.66012,0.19964 -1.56588,0.291612 -2.7326,0.291612 -0.9672,0 -1.87296,-0.169 -2.73266,-0.537318 -0.8597,-0.368248 -1.62728,-0.859702 -2.28742,-1.519836 -0.61406,-0.644766 -1.12066,-1.427712 -1.4891,-2.364168 -0.36824,-0.951822 -0.56804,-1.934338 -0.56804,-2.978242 0,-1.611956 0.33758,-2.993608 1.02858,-4.129634 0.67548,-1.136062 1.75012,-2.041786 3.23922,-2.701918 1.3049,-0.598746 2.85544,-1.01325 4.63626,-1.243512 1.7808,-0.230302 3.68444,-0.399136 5.75692,-0.506624 v -0.76758 c 0,-0.905762 -0.138,-1.657978 -0.4145,-2.210662 -0.29162,-0.568012 -0.67546,-0.997844 -1.16672,-1.3049 -0.50662,-0.322264 -1.1207,-0.537318 -1.84222,-0.644766 -0.72152,-0.1073 -1.47378,-0.15366 -2.24136,-0.15366 -0.89042,0 -1.96502,0.13794 -3.19318,0.414464 -1.22814,0.260956 -2.45628,0.660132 -3.6691,1.166758 h -0.2303 v -3.976126 c 0.72152,-0.214974 1.7501,-0.445196 3.10106,-0.690826 1.35096,-0.260956 2.68658,-0.383968 4.02218,-0.383968 1.58122,0 2.93218,0.12262 4.05288,0.383968 1.08996,0.24563 2.08784,0.706194 2.96292,1.35096 0.84432,0.644766 1.47376,1.473774 1.9036,2.486984 0.4145,1.01321 0.61408,2.25672 0.61408,3.715128 V 82.7769 h -3.89938 v -2.471656"
         id="path1943" />
      <path
         d="m 255.97612,83.237695 c -2.14928,0 -3.82262,-0.598746 -5.02004,-1.82689 -1.19746,-1.212778 -1.79618,-3.147116 -1.79618,-5.772282 V 62.712307 h -2.6405 v -3.254604 h 2.6405 v -6.708738 h 3.93006 v 6.708738 h 7.23072 v 3.254604 h -7.23072 v 11.083998 c 0,1.182086 0.016,2.103214 0.0614,2.74798 0.046,0.644766 0.21496,1.228146 0.47588,1.796158 0.24564,0.491258 0.62944,0.844374 1.1514,1.090002 0.53732,0.24563 1.2435,0.368248 2.14928,0.368248 0.64476,0 1.2742,-0.09196 1.85754,-0.276284 0.61406,-0.19964 1.04394,-0.35292 1.3049,-0.475892 h 0.23028 v 3.530928 c -0.73688,0.214974 -1.48914,0.368246 -2.25672,0.491258 -0.75224,0.12262 -1.44308,0.169 -2.08784,0.169"
         id="path1945" />
      <path
         d="m 281.33728,82.79246 h -3.93005 V 59.457704 h 3.93005 z m 0.27628,-27.234086 h -4.46737 v -4.083612 h 4.46737 z m 0,0"
         id="path1947" />
      <path
         d="m 314.65076,71.125082 c 0,-3.008936 -0.5527,-5.265656 -1.65802,-6.724064 -1.08996,-1.473774 -2.67122,-2.21066 -4.69764,-2.21066 -2.0418,0 -3.60768,0.736886 -4.72838,2.21066 -1.10534,1.458408 -1.65798,3.715128 -1.65798,6.724064 0,2.932222 0.55264,5.142882 1.65798,6.662716 1.1207,1.504468 2.68658,2.256722 4.72838,2.256722 2.02642,0 3.5923,-0.736888 4.69764,-2.210662 1.10532,-1.48914 1.65802,-3.715168 1.65802,-6.708776 z m 4.05288,0 c 0,3.930064 -0.95182,6.969734 -2.85549,9.10364 -1.8729,2.11854 -4.40594,3.193178 -7.55306,3.193178 -3.23924,0 -5.78765,-1.089964 -7.6452,-3.300626 -1.87294,-2.21066 -2.79404,-5.20427 -2.79404,-8.996192 0,-3.89933 0.95182,-6.923632 2.8708,-9.088272 1.91896,-2.149234 4.43664,-3.223872 7.56844,-3.223872 3.14712,0 5.68016,1.074638 7.55306,3.223872 1.90366,2.149272 2.85548,5.173576 2.85548,9.088272"
         id="path1949" />
      <path
         d="m 355.17951,82.79246 h -3.93006 V 69.4978 c 0,-1.074636 -0.046,-2.057152 -0.1536,-2.993608 -0.1072,-0.92109 -0.30692,-1.673342 -0.5987,-2.225988 -0.32226,-0.58338 -0.75226,-1.01325 -1.33558,-1.3049 -0.56802,-0.276284 -1.35096,-0.42987 -2.33348,-0.42987 -0.98252,0 -1.9804,0.276284 -3.0243,0.782948 -1.02858,0.521952 -2.04184,1.212778 -3.03968,2.041786 V 82.79246 h -3.91474 V 59.457704 h 3.91474 v 2.594472 c 1.18208,-1.043904 2.33348,-1.857584 3.4695,-2.41023 1.13603,-0.552684 2.34884,-0.829008 3.62306,-0.829008 2.2874,0 4.08356,0.752254 5.38846,2.272088 1.28954,1.504468 1.93434,3.684436 1.93434,6.55523 V 82.79246"
         id="path1951" />
      <path
         d="m 12.95691,134.62018 c -2.25672,0 -4.1756923,-0.24562 -5.7569143,-0.70616 -1.5812616,-0.47592 -3.070363,-1.04394 -4.4673828,-1.7194 v -5.18894 h 0.2916108 c 1.3662868,1.28958 2.9168542,2.28746 4.636258,2.97828 1.73473,0.70616 3.3927443,1.05928 4.9893343,1.05928 2.287414,0 4.006818,-0.47594 5.188902,-1.42772 1.166718,-0.95182 1.750096,-2.21066 1.750096,-3.77656 0,-1.2435 -0.306938,-2.24136 -0.921088,-3.0243 -0.614072,-0.78294 -1.596588,-1.36632 -2.916854,-1.73476 -0.96715,-0.2763 -1.842218,-0.5066 -2.640532,-0.69084 -0.782908,-0.169 -1.78079,-0.42982 -2.978242,-0.73688 -1.0746363,-0.27628 -2.0264203,-0.62944 -2.8861203,-1.05928 -0.844375,-0.42986 -1.5965892,-0.99788 -2.256722,-1.6887 -0.6447664,-0.69082 -1.1360244,-1.4891 -1.4891406,-2.41022 -0.3529196,-0.9211 -0.5373184,-1.99574 -0.5373184,-3.20856 0,-2.51768 0.982516,-4.63622 2.947548,-6.34028 1.965033,-1.70404 4.4673833,-2.54838 7.5224173,-2.54838 1.73473,0 3.37738,0.169 4.943274,0.50658 1.550528,0.35332 2.978242,0.84438 4.298508,1.48914 v 4.94328 h -0.306938 c -0.982516,-0.8904 -2.256722,-1.6887 -3.80725,-2.36416 -1.535162,-0.6755 -3.162444,-1.01322 -4.851152,-1.01322 -1.934338,0 -3.484866,0.4452 -4.6669523,1.35096 -1.182084,0.8904 -1.765462,2.07248 -1.765462,3.53088 0,1.32028 0.337592,2.37954 1.028576,3.1625 0.706192,0.76758 1.7194023,1.35096 3.0396683,1.70402 0.875028,0.24564 1.949666,0.50664 3.208504,0.79832 1.274206,0.30694 2.318148,0.58338 3.162484,0.82902 2.133906,0.66012 3.699802,1.65796 4.697644,2.97824 0.982516,1.32026 1.473774,2.94754 1.473774,4.88188 0,1.21278 -0.245628,2.41022 -0.736886,3.59232 -0.491258,1.18208 -1.182086,2.17996 -2.087848,3.00892 -0.997842,0.90576 -2.133906,1.5966 -3.377378,2.08786 -1.274206,0.47592 -2.8401,0.73688 -4.728378,0.73688"
         id="path1953" />
      <path
         d="m 55.803844,134.49736 c -2.133909,0 -3.80725,-0.5987 -5.004701,-1.81148 -1.197452,-1.22816 -1.796158,-3.14712 -1.796158,-5.77228 v -12.92626 h -2.655858 v -3.26994 h 2.655858 v -6.69336 h 3.930065 v 6.69336 h 7.230688 v 3.26994 H 52.93305 v 11.08404 c 0,1.18208 0.0158,2.08784 0.06132,2.7326 0.04598,0.64478 0.19964,1.24352 0.475931,1.79616 0.24563,0.49126 0.6294,0.8597 1.151352,1.08996 0.521992,0.24564 1.243512,0.36826 2.149274,0.36826 0.644766,0 1.258838,-0.092 1.857584,-0.27628 0.598706,-0.1844 1.028536,-0.3376 1.304898,-0.4759 h 0.230302 v 3.53092 c -0.752252,0.21498 -1.489141,0.36826 -2.25672,0.49126 -0.752214,0.1226 -1.458409,0.169 -2.103174,0.169"
         id="path1955" />
      <path
         d="m 96.194447,128.3106 v -6.47848 c -0.936456,0.0766 -2.11854,0.1996 -3.546254,0.35292 -1.427754,0.1384 -2.563778,0.35332 -3.454172,0.61408 -1.043944,0.30694 -1.903646,0.81364 -2.594472,1.47378 -0.67546,0.64476 -1.01321,1.58126 -1.01321,2.76334 0,1.3356 0.368248,2.3488 1.120698,3.0243 0.752215,0.69082 1.857544,1.02858 3.300624,1.02858 1.243512,0 2.36417,-0.27628 3.362052,-0.81364 0.997882,-0.53732 1.949666,-1.18212 2.824734,-1.96504 z m 0,3.25456 c -0.322266,0.24564 -0.752254,0.56802 -1.289572,0.99788 -0.53728,0.41452 -1.05927,0.75222 -1.550528,1.01322 -0.706154,0.35292 -1.366288,0.62944 -2.02642,0.829 -0.644766,0.1996 -1.5352,0.29162 -2.717286,0.29162 -0.967148,0 -1.872909,-0.1844 -2.732611,-0.53732 -0.859702,-0.36824 -1.627282,-0.87508 -2.287416,-1.5352 -0.614072,-0.6294 -1.120696,-1.42772 -1.504468,-2.36418 -0.368246,-0.93644 -0.552684,-1.93434 -0.552684,-2.97824 0,-1.61194 0.337592,-2.9936 1.028576,-4.1143 0.67546,-1.13602 1.750097,-2.04178 3.223871,-2.71724 1.320264,-0.59876 2.855426,-1.01326 4.636256,-1.22816 1.796158,-0.24562 3.71513,-0.4145 5.772282,-0.52198 v -0.75222 c 0,-0.92112 -0.13834,-1.65802 -0.414504,-2.22602 -0.29161,-0.55264 -0.67546,-0.99788 -1.166718,-1.3049 -0.506624,-0.32226 -1.120698,-0.52196 -1.842218,-0.64476 -0.72156,-0.092 -1.473774,-0.1536 -2.241394,-0.1536 -0.905762,0 -1.965032,0.1384 -3.193176,0.4145 -1.228146,0.2763 -2.45629,0.6755 -3.66907,1.1821 h -0.2303 v -3.99146 c 0.72152,-0.21498 1.765424,-0.42986 3.101056,-0.69082 1.350958,-0.24564 2.686552,-0.36826 4.022184,-0.36826 1.596588,0 2.947548,0.1226 4.052878,0.36826 1.089964,0.26096 2.07248,0.70618 2.947548,1.36628 0.859702,0.62944 1.489102,1.45844 1.903606,2.48702 0.42987,1.01322 0.629441,2.25672 0.629441,3.69976 v 15.9659 h -3.899373 v -2.487"
         id="path1957" />
      <path
         d="m 143.18634,134.05216 h -3.9147 v -13.2793 c 0,-1.07464 -0.0612,-2.07252 -0.16899,-3.00896 -0.1072,-0.9211 -0.30694,-1.65798 -0.58338,-2.21066 -0.32226,-0.59872 -0.76758,-1.02858 -1.35096,-1.3049 -0.55264,-0.29162 -1.35096,-0.42984 -2.33346,-0.42984 -0.96716,0 -1.9804,0.26096 -3.00894,0.7829 -1.04394,0.50664 -2.05716,1.19746 -3.03968,2.02646 v 17.4243 h -3.93006 V 110.7174 h 3.93006 v 2.59448 c 1.16672,-1.04394 2.31812,-1.84222 3.45414,-2.3949 1.1514,-0.56802 2.34884,-0.84434 3.62304,-0.84434 2.28742,0 4.08358,0.75226 5.38848,2.27208 1.28958,1.50448 1.93434,3.69976 1.93434,6.57056 v 15.13688"
         id="path1959" />
      <path
         d="m 183.69976,128.37201 v -13.44816 c -0.98252,-0.47594 -1.85756,-0.79832 -2.62514,-0.98252 -0.7676,-0.1844 -1.61194,-0.27628 -2.5177,-0.27628 -2.02642,0 -3.60768,0.76762 -4.74372,2.27208 -1.136,1.50446 -1.70404,3.68444 -1.70404,6.53986 0,2.74798 0.42984,4.8512 1.30492,6.29424 0.87502,1.45844 2.30274,2.19532 4.22174,2.19532 1.02854,0 2.0725,-0.24562 3.1164,-0.70618 1.04392,-0.46056 2.02644,-1.10534 2.94754,-1.88828 z m 3.91474,5.68016 h -3.91474 v -2.37954 c -0.61406,0.50662 -1.15134,0.9365 -1.59658,1.2742 -0.4452,0.3376 -0.96716,0.62944 -1.56586,0.92114 -0.55268,0.26096 -1.13606,0.46056 -1.7194,0.61406 -0.59876,0.1384 -1.3049,0.21498 -2.10322,0.21498 -1.25884,0 -2.44092,-0.26096 -3.51556,-0.7983 -1.07464,-0.52196 -1.99574,-1.3049 -2.74798,-2.31812 -0.75226,-1.02858 -1.35096,-2.28742 -1.76546,-3.80724 -0.42984,-1.50452 -0.6294,-3.23924 -0.6294,-5.20428 0,-2.04178 0.26096,-3.82262 0.79826,-5.31172 0.52196,-1.5045 1.25886,-2.8094 2.17998,-3.93006 0.84434,-1.01324 1.88828,-1.81152 3.0857,-2.37954 1.19744,-0.58338 2.47164,-0.87506 3.79192,-0.87506 1.16672,0 2.17996,0.1384 3.055,0.38396 0.84436,0.26096 1.76546,0.66014 2.7326,1.19742 v -10.10148 h 3.91474 v 32.49978"
         id="path1961" />
      <path
         d="m 225.5795,128.3106 v -6.47848 c -0.93646,0.0766 -2.11853,0.1996 -3.53087,0.35292 -1.42772,0.1384 -2.57912,0.35332 -3.46954,0.61408 -1.04392,0.30694 -1.88824,0.81364 -2.57912,1.47378 -0.69082,0.64476 -1.02852,1.58126 -1.02852,2.76334 0,1.3356 0.38356,2.3488 1.12064,3.0243 0.76758,0.69082 1.8576,1.02858 3.30068,1.02858 1.25884,0 2.36416,-0.27628 3.37738,-0.81364 0.99787,-0.53732 1.93431,-1.18212 2.80935,-1.96504 z m 0,3.25456 c -0.30693,0.24564 -0.75222,0.56802 -1.27415,0.99788 -0.55271,0.41452 -1.05933,0.75222 -1.5659,1.01322 -0.69082,0.35292 -1.36632,0.62944 -2.0111,0.829 -0.64476,0.1996 -1.56588,0.29162 -2.71728,0.29162 -0.96714,0 -1.88828,-0.1844 -2.74798,-0.53732 -0.8597,-0.36824 -1.61192,-0.87508 -2.27204,-1.5352 -0.62944,-0.6294 -1.13604,-1.42772 -1.50448,-2.36418 -0.36824,-0.93644 -0.568,-1.93434 -0.568,-2.97824 0,-1.61194 0.33758,-2.9936 1.02852,-4.1143 0.6755,-1.13602 1.76548,-2.04178 3.23924,-2.71724 1.3049,-0.59876 2.8401,-1.01326 4.63626,-1.22816 1.78084,-0.24562 3.6998,-0.4145 5.75691,-0.52198 v -0.75222 c 0,-0.92112 -0.13839,-1.65802 -0.41446,-2.22602 -0.27628,-0.55264 -0.66014,-0.99788 -1.18214,-1.3049 -0.49124,-0.32226 -1.10531,-0.52196 -1.82683,-0.64476 -0.72152,-0.092 -1.47378,-0.1536 -2.22602,-0.1536 -0.92111,0 -1.98036,0.1384 -3.20852,0.4145 -1.21283,0.2763 -2.44097,0.6755 -3.66911,1.1821 h -0.2303 v -3.99146 c 0.73688,-0.21498 1.76547,-0.42986 3.11642,-0.69082 1.3356,-0.24564 2.68656,-0.36826 4.00682,-0.36826 1.59659,0 2.94755,0.1226 4.03752,0.36826 1.10532,0.26096 2.1032,0.70618 2.97828,1.36628 0.84432,0.62944 1.47376,1.45844 1.9036,2.48702 0.4145,1.01322 0.61406,2.25672 0.61406,3.69976 v 15.9659 h -3.89936 v -2.487"
         id="path1963" />
      <path
         d="m 270.03836,114.93913 h -0.21498 l -0.93646,-0.1536 c -0.32226,-0.016 -0.72156,-0.0314 -1.18213,-0.0314 -1.0439,0 -2.10317,0.2303 -3.14711,0.69082 -1.04391,0.46058 -2.02643,1.13604 -2.96286,2.0418 v 16.56458 h -3.93008 v -23.33474 h 3.93008 v 3.46952 c 1.42769,-1.25886 2.68654,-2.16464 3.74582,-2.68658 1.07464,-0.52196 2.1032,-0.78294 3.10105,-0.78294 0.39917,0 0.70618,0.016 0.90576,0.0314 l 0.69082,0.092 v 4.09894"
         id="path1965" />
      <path
         d="m 308.06483,128.37201 v -13.44816 c -0.9672,-0.47594 -1.84222,-0.79832 -2.60984,-0.98252 -0.78296,-0.1844 -1.61192,-0.27628 -2.51768,-0.27628 -2.02646,0 -3.60768,0.76762 -4.7437,2.27208 -1.13608,1.50446 -1.71942,3.68444 -1.71942,6.53986 0,2.74798 0.4452,4.8512 1.32024,6.29424 0.87506,1.45844 2.28744,2.19532 4.22174,2.19532 1.02858,0 2.05716,-0.24562 3.11644,-0.70618 1.02856,-0.46056 2.02644,-1.10534 2.93222,-1.88828 z m 3.93006,5.68016 h -3.93006 v -2.37954 c -0.61408,0.50662 -1.13608,0.9365 -1.58126,1.2742 -0.46058,0.3376 -0.96716,0.62944 -1.5659,0.92114 -0.55266,0.26096 -1.13602,0.46056 -1.73474,0.61406 -0.59874,0.1384 -1.28956,0.21498 -2.08784,0.21498 -1.2742,0 -2.4563,-0.26096 -3.51556,-0.7983 -1.07464,-0.52196 -1.99576,-1.3049 -2.74798,-2.31812 -0.76758,-1.02858 -1.36632,-2.28742 -1.78084,-3.80724 -0.4145,-1.50452 -0.61406,-3.23924 -0.61406,-5.20428 0,-2.04178 0.24562,-3.82262 0.78294,-5.31172 0.53734,-1.5045 1.25884,-2.8094 2.19534,-3.93006 0.84434,-1.01324 1.8729,-1.81152 3.0857,-2.37954 1.19744,-0.58338 2.45628,-0.87506 3.7919,-0.87506 1.16672,0 2.17994,0.1384 3.03964,0.38396 0.8597,0.26096 1.78082,0.66014 2.73266,1.19742 v -10.10148 h 3.93006 v 32.49978"
         id="path1967" />
      <path
         d="m 345.79956,134.62018 c -1.56588,0 -3.0243,-0.21498 -4.37526,-0.64476 -1.36632,-0.4145 -2.48701,-0.8597 -3.37741,-1.32028 v -4.40594 h 0.21497 c 0.32227,0.26096 0.72153,0.55268 1.16673,0.87506 0.46055,0.32226 1.07463,0.64476 1.81151,0.99784 0.6755,0.30694 1.41238,0.58338 2.21066,0.81364 0.79832,0.2303 1.62728,0.35292 2.48698,0.35292 0.62944,0 1.28958,-0.0766 2.0111,-0.21496 0.7062,-0.1384 1.24352,-0.3376 1.58126,-0.55266 0.49126,-0.32226 0.84434,-0.66012 1.05928,-1.02858 0.21496,-0.3533 0.32226,-0.90576 0.32226,-1.62732 0,-0.93644 -0.26096,-1.6426 -0.75226,-2.11854 -0.50658,-0.46056 -1.42772,-0.8597 -2.71723,-1.18208 -0.50662,-0.1226 -1.1514,-0.26096 -1.96505,-0.42982 -0.7983,-0.169 -1.55052,-0.35332 -2.22601,-0.5527 -1.7808,-0.50662 -3.08574,-1.3049 -3.884,-2.39486 -0.81364,-1.07464 -1.21278,-2.37954 -1.21278,-3.91474 0,-2.10316 0.7829,-3.80724 2.3795,-5.1275 1.58126,-1.3356 3.6998,-1.99574 6.32496,-1.99574 1.3049,0 2.59446,0.169 3.9147,0.49126 1.3049,0.32226 2.3949,0.72156 3.30066,1.21282 v 4.19102 h -0.2303 c -0.99784,-0.79828 -2.10318,-1.41234 -3.34668,-1.88828 -1.22816,-0.4452 -2.4563,-0.67546 -3.71514,-0.67546 -1.3049,0 -2.3949,0.26096 -3.2853,0.79828 -0.89038,0.55268 -1.33558,1.3817 -1.33558,2.47166 0,0.98252 0.26094,1.70404 0.79826,2.17996 0.52196,0.49126 1.36634,0.87504 2.54842,1.18208 0.58338,0.1536 1.22814,0.30694 1.94966,0.46058 0.72155,0.138 1.47378,0.30692 2.25671,0.50658 1.73478,0.42986 3.03968,1.15138 3.89938,2.14928 0.87506,0.99784 1.3049,2.36416 1.3049,4.09892 0,0.99786 -0.1996,1.94968 -0.58338,2.84006 -0.4145,0.90578 -0.99784,1.67336 -1.7501,2.31816 -0.829,0.69082 -1.7808,1.22814 -2.82474,1.58122 -1.05926,0.36824 -2.37954,0.55264 -3.96076,0.55264"
         id="path1969" />
    </g>
    <path
       style="fill:#e9da9e"
       d="m 253.12069,181.79638 c 0,1.1514 -0.92112,2.07248 -2.07252,2.07248 h -14.27718 c -1.15138,0 -2.07248,-0.92108 -2.07248,-2.07248 v -1.25884 l -0.0314,-0.72156 v -18.86736 h -6.32492 v 18.86736 l -0.0314,0.72156 v 1.25884 c 0,1.1514 -0.93646,2.07248 -2.08786,2.07248 h -14.2772 c -1.13602,0 -2.07248,-0.92108 -2.07248,-2.07248 v -20.84776 h -6.3096 v 18.86736 c 0,5.09682 2.59446,10.2704 8.99614,10.2704 h 12.23544 c 4.02214,0 6.35562,-1.919 6.70874,-2.24138 0.35292,0.32226 2.68654,2.24138 6.69336,2.24138 h 12.2354 c 6.41708,0 9.01152,-5.17358 9.01152,-10.2704 v -18.86736 h -6.32494 z m -111.17786,2.41024 h -33.00636 v -17.30148 h 33.00636 c 6.47848,0 9.16508,3.1778 9.16508,8.48952 0,5.2964 -2.19534,8.81196 -9.16508,8.81196 z m 0,-23.258 h -39.31596 v 29.21452 h 39.31596 c 4.34458,0 15.68956,-1.16676 15.68956,-14.66098 0,-13.4789 -10.97654,-14.55354 -15.68956,-14.55354 z m 213.57442,10.6388 -8.56628,-0.016 h -23.88744 c -1.64266,0 -2.96288,1.33558 -2.96288,2.97824 0,1.64264 1.32022,2.97824 2.96288,2.97824 h 28.32408 c 1.51984,0 1.96504,0.4145 1.96504,3.23924 0,2.47166 -1.96504,3.4388 -3.42344,3.4388 h -29.39872 c -6.47848,0 -9.16504,-3.1778 -9.16504,-8.4742 0,-5.31172 2.1953,-8.82728 9.16504,-8.82728 h 36.49126 c 1.64266,0 2.97824,-1.33562 2.97824,-2.97824 0,-1.64264 -1.33558,-2.97828 -2.97824,-2.97828 h -36.49126 c -4.34458,0 -15.68956,1.16676 -15.68956,14.64566 0,13.49422 10.97654,14.56886 15.68956,14.56886 h 26.7275 c 9.94796,0 12.55776,-4.72838 12.55776,-8.93476 0,-5.0354 0,-4.94328 0,-5.72622 0,-0.76758 0.016,-3.91474 -4.2985,-3.91474 z M 53.593187,160.94862 H 2.9782425 c -1.642648,0 -2.978242,1.33562 -2.978242,2.97828 0,1.6426 1.335594,2.97824 2.978242,2.97824 H 25.361166 v 23.258 h 6.3096 v -23.258 h 21.92242 c 1.65798,0 2.97824,-1.33564 2.97824,-2.97824 0,-1.64266 -1.32026,-2.97828 -2.97824,-2.97828"
       id="tdwg" />
  </g>
</svg>
